<svg width="1280" height="720" xmlns="http://www.w3.org/2000/svg" xmlns:xlink="http://www.w3.org/1999/xlink" overflow="hidden"><defs><clipPath id="clip0"><rect x="0" y="0" width="1280" height="720"/></clipPath></defs><g clip-path="url(#clip0)"><rect x="0" y="0" width="1280" height="720" fill="#FFFFFF"/><rect x="385" y="211" width="510" height="298" stroke="#2F528F" stroke-width="8" stroke-miterlimit="8" fill="none"/><text font-family="Calibri,Calibri_MSFontService,sans-serif" font-weight="400" font-size="53" transform="translate(576.619 287)">Gitea</text><path d="M59.5001 78.667C59.5001 69.7383 66.7383 62.5001 75.667 62.5001L222.333 62.5001C231.262 62.5001 238.5 69.7383 238.5 78.667L238.5 143.333C238.5 152.262 231.262 159.5 222.333 159.5L75.667 159.5C66.7383 159.5 59.5001 152.262 59.5001 143.333Z" stroke="#2F528F" stroke-width="1.33333" stroke-miterlimit="8" fill="#4472C4" fill-rule="evenodd"/><text fill="#FFFFFF" font-family="Calibri,Calibri_MSFontService,sans-serif" font-weight="400" font-size="24" transform="translate(113.055 104)">[Client]</text><text fill="#FFFFFF" font-family="Calibri,Calibri_MSFontService,sans-serif" font-weight="400" font-size="24" transform="translate(98.2882 133)">Developer</text><path d="M59.5001 236.834C59.5001 227.813 66.8129 220.5 75.8338 220.5L222.166 220.5C231.187 220.5 238.5 227.813 238.5 236.834L238.5 302.166C238.5 311.187 231.187 318.5 222.166 318.5L75.8338 318.5C66.8129 318.5 59.5001 311.187 59.5001 302.166Z" stroke="#2F528F" stroke-width="1.33333" stroke-miterlimit="8" fill="#4472C4" fill-rule="evenodd"/><text fill="#FFFFFF" font-family="Calibri,Calibri_MSFontService,sans-serif" font-weight="400" font-size="24" transform="translate(113.055 262)">[Client]</text><text fill="#FFFFFF" font-family="Calibri,Calibri_MSFontService,sans-serif" font-weight="400" font-size="24" transform="translate(98.2882 291)">Developer</text><path d="M59.5001 418.834C59.5001 409.813 66.8129 402.5 75.8338 402.5L222.166 402.5C231.187 402.5 238.5 409.813 238.5 418.834L238.5 484.166C238.5 493.187 231.187 500.5 222.166 500.5L75.8338 500.5C66.8129 500.5 59.5001 493.187 59.5001 484.166Z" stroke="#2F528F" stroke-width="1.33333" stroke-miterlimit="8" fill="#4472C4" fill-rule="evenodd"/><text fill="#FFFFFF" font-family="Calibri,Calibri_MSFontService,sans-serif" font-weight="400" font-size="24" transform="translate(113.055 444)">[Client]</text><text fill="#FFFFFF" font-family="Calibri,Calibri_MSFontService,sans-serif" font-weight="400" font-size="24" transform="translate(98.2882 473)">Developer</text><path d="M59.5001 577.667C59.5001 568.738 66.7383 561.5 75.667 561.5L222.333 561.5C231.262 561.5 238.5 568.738 238.5 577.667L238.5 642.333C238.5 651.262 231.262 658.5 222.333 658.5L75.667 658.5C66.7383 658.5 59.5001 651.262 59.5001 642.333Z" stroke="#2F528F" stroke-width="1.33333" stroke-miterlimit="8" fill="#4472C4" fill-rule="evenodd"/><text fill="#FFFFFF" font-family="Calibri,Calibri_MSFontService,sans-serif" font-weight="400" font-size="24" transform="translate(113.055 603)">[Client]</text><text fill="#FFFFFF" font-family="Calibri,Calibri_MSFontService,sans-serif" font-weight="400" font-size="24" transform="translate(98.2882 632)">Developer</text><rect x="447.5" y="332.5" width="135" height="141" stroke="#507E32" stroke-width="1.33333" stroke-miterlimit="8" fill="#70AD47"/><text fill="#FFFFFF" font-family="Calibri,Calibri_MSFontService,sans-serif" font-weight="400" font-size="32" transform="translate(462.5 375)">[Server]</text><text fill="#FFFFFF" font-family="Calibri,Calibri_MSFontService,sans-serif" font-weight="400" font-size="32" transform="translate(494.993 413)">Git</text><text fill="#FFFFFF" font-family="Calibri,Calibri_MSFontService,sans-serif" font-weight="400" font-size="32" transform="translate(463.493 452)">Modul</text><text fill="#FFFFFF" font-family="Calibri,Calibri_MSFontService,sans-serif" font-weight="400" font-size="32" transform="translate(548.66 452)">e</text><path d="M238.78 89.3745 441.049 341.697 439.489 342.948 237.22 90.6255ZM444.637 337.113 447.775 351.686 434.234 345.452Z"/><path d="M238.491 268.129 439.173 381.328 438.19 383.07 237.509 269.871ZM440.795 375.737 449.133 388.094 434.245 387.35Z"/><path d="M0.0903791-0.995907 196.556 16.8335 196.375 18.8253-0.0903791 0.995907ZM195.74 11.0695 208.416 18.9139 194.535 24.3482Z" transform="matrix(1 0 0 -1 238 450.914)"/><path d="M0.587263-0.809396 199.291 143.361 198.116 144.98-0.587263 0.809396ZM201.54 137.992 208.416 151.218 193.709 148.784Z" transform="matrix(1 0 0 -1 238 609.218)"/><path d="M445.506 371.821 243.586 161.352 245.029 159.967 446.949 370.436ZM240.42 166.237 236 152 250.041 157.006Z"/><path d="M446.615 403.256 250.314 306.214 251.201 304.422 447.501 401.464ZM248.998 311.885 240 300 254.907 299.932Z"/><path d="M0.0534181-0.998572 197.393 9.558 197.286 11.5551-0.0534181 0.998572ZM196.364 3.82819 209.322 11.1976 195.652 17.1425Z" transform="matrix(-1 0 0 1 446.322 421)"/><path d="M0.571241-0.820782 217.146 149.909 216.003 151.551-0.571241 0.820782ZM219.289 144.496 226.424 157.585 211.672 155.44Z" transform="matrix(-1 0 0 1 466.424 473)"/><text font-family="Calibri,Calibri_MSFontService,sans-serif" font-weight="400" font-size="24" transform="translate(309.374 133)">Git requests, e.g.</text><text font-family="Calibri,Calibri_MSFontService,sans-serif" font-weight="400" font-size="24" transform="translate(309.374 162)">clone, pull, push…</text><text font-family="Calibri,Calibri_MSFontService,sans-serif" font-weight="400" font-size="24" transform="translate(321.769 600)">Corresponding</text><text font-family="Calibri,Calibri_MSFontService,sans-serif" font-weight="400" font-size="24" transform="translate(321.769 629)">response</text><rect x="698.5" y="332.5" width="135" height="140" stroke="#AE5A21" stroke-width="1.33333" stroke-miterlimit="8" fill="#ED7D31"/><text fill="#FFFFFF" font-family="Calibri,Calibri_MSFontService,sans-serif" font-weight="400" font-size="32" transform="translate(718.66 374)">[Client]</text><text fill="#FFFFFF" font-family="Calibri,Calibri_MSFontService,sans-serif" font-weight="400" font-size="32" transform="translate(728.927 412)">CI/CD</text><text fill="#FFFFFF" font-family="Calibri,Calibri_MSFontService,sans-serif" font-weight="400" font-size="32" transform="translate(715.34 451)">Modul</text><text fill="#FFFFFF" font-family="Calibri,Calibri_MSFontService,sans-serif" font-weight="400" font-size="32" transform="translate(800.507 451)">e</text><path d="M582 408 588 402 588 405 692 405 692 402 698 408 692 414 692 411 588 411 588 414Z" stroke="#2F528F" stroke-width="2" stroke-miterlimit="8" fill="#4472C4" fill-rule="evenodd"/><path d="M1000.5 217.334C1000.5 198.096 1016.1 182.5 1035.33 182.5L1174.67 182.5C1193.9 182.5 1209.5 198.096 1209.5 217.334L1209.5 560.666C1209.5 579.904 1193.9 595.5 1174.67 595.5L1035.33 595.5C1016.1 595.5 1000.5 579.904 1000.5 560.666Z" stroke="#2F528F" stroke-width="1.33333" stroke-miterlimit="8" fill="#4472C4" fill-rule="evenodd"/><text fill="#FFFFFF" font-family="Calibri,Calibri_MSFontService,sans-serif" font-weight="400" font-size="43" transform="translate(1035.93 326)">[Server]</text><text fill="#FFFFFF" font-family="Calibri,Calibri_MSFontService,sans-serif" font-weight="400" font-size="43" transform="translate(1030.85 377)">3</text><text fill="#FFFFFF" font-family="Calibri,Calibri_MSFontService,sans-serif" font-weight="400" font-size="28" transform="translate(1052.52 364)">rd</text><text fill="#FFFFFF" font-family="Calibri,Calibri_MSFontService,sans-serif" font-weight="400" font-size="43" transform="translate(1086.8 377)">party</text><text fill="#FFFFFF" font-family="Calibri,Calibri_MSFontService,sans-serif" font-weight="400" font-size="43" transform="translate(1054.91 428)">CI/CD</text><text fill="#FFFFFF" font-family="Calibri,Calibri_MSFontService,sans-serif" font-weight="400" font-size="43" transform="translate(1029.64 480)">Platfor</text><text fill="#FFFFFF" font-family="Calibri,Calibri_MSFontService,sans-serif" font-weight="400" font-size="43" transform="translate(1145.35 480)">m</text><path d="M0.220316-0.975428 153.453 33.6346 153.012 35.5855-0.220316 0.975428ZM153.401 27.8134 164.938 37.2539 150.463 40.8192Z" transform="matrix(1 0 0 -1 833 366.254)"/><path d="M998.153 459.481 844.523 426.497 844.943 424.541 998.573 457.526ZM844.637 432.317 833 423 847.436 419.281Z"/><text font-family="Calibri,Calibri_MSFontService,sans-serif" font-weight="400" font-size="24" transform="translate(912.201 468)">Task</text><text font-family="Calibri,Calibri_MSFontService,sans-serif" font-weight="400" font-size="24" transform="translate(912.201 497)">execute</text><text font-family="Calibri,Calibri_MSFontService,sans-serif" font-weight="400" font-size="24" transform="translate(912.201 526)">results,</text><text font-family="Calibri,Calibri_MSFontService,sans-serif" font-weight="400" font-size="24" transform="translate(912.201 555)">Etc</text><text font-family="Calibri,Calibri_MSFontService,sans-serif" font-weight="400" font-size="24" transform="translate(941.461 555)">.</text><text font-family="Calibri,Calibri_MSFontService,sans-serif" font-weight="400" font-size="24" transform="translate(909.519 322)">Events</text></g></svg>