<svg width="1280" height="833" xmlns="http://www.w3.org/2000/svg" xmlns:xlink="http://www.w3.org/1999/xlink" overflow="hidden"><defs><clipPath id="clip0"><rect x="0" y="0" width="1280" height="833"/></clipPath></defs><g clip-path="url(#clip0)"><rect x="0" y="0" width="1280" height="832.667" fill="#FFFFFF"/><rect x="408" y="264.894" width="510" height="296.881" stroke="#2F528F" stroke-width="8" stroke-miterlimit="8" fill="none"/><text font-family="Calibri,Calibri_MSFontService,sans-serif" font-weight="400" font-size="53" transform="matrix(1 0 0 0.9996 508.121 341)">Gitea</text><path d="M82.5001 131.781C82.5001 122.764 89.8129 115.454 98.8338 115.454L245.166 115.454C254.187 115.454 261.5 122.764 261.5 131.781L261.5 197.087C261.5 206.105 254.187 213.415 245.166 213.415L98.8338 213.415C89.8129 213.415 82.5001 206.105 82.5001 197.087Z" stroke="#2F528F" stroke-width="1.33333" stroke-miterlimit="8" fill="#4472C4" fill-rule="evenodd"/><text fill="#FFFFFF" font-family="Calibri,Calibri_MSFontService,sans-serif" font-weight="400" font-size="24" transform="matrix(1 0 0 0.9996 136.327 157)">[Client]</text><text fill="#FFFFFF" font-family="Calibri,Calibri_MSFontService,sans-serif" font-weight="400" font-size="24" transform="matrix(1 0 0 0.9996 121.561 186)">Developer</text><path d="M82.5001 290.717C82.5001 281.7 89.8129 274.39 98.8338 274.39L245.166 274.39C254.187 274.39 261.5 281.7 261.5 290.717L261.5 356.024C261.5 365.041 254.187 372.351 245.166 372.351L98.8338 372.351C89.8129 372.351 82.5001 365.041 82.5001 356.024Z" stroke="#2F528F" stroke-width="1.33333" stroke-miterlimit="8" fill="#4472C4" fill-rule="evenodd"/><text fill="#FFFFFF" font-family="Calibri,Calibri_MSFontService,sans-serif" font-weight="400" font-size="24" transform="matrix(1 0 0 0.9996 136.327 316)">[Client]</text><text fill="#FFFFFF" font-family="Calibri,Calibri_MSFontService,sans-serif" font-weight="400" font-size="24" transform="matrix(1 0 0 0.9996 121.561 345)">Developer</text><path d="M82.5001 472.645C82.5001 463.627 89.8129 456.317 98.8338 456.317L245.166 456.317C254.187 456.317 261.5 463.627 261.5 472.645L261.5 537.951C261.5 546.968 254.187 554.278 245.166 554.278L98.8338 554.278C89.8129 554.278 82.5001 546.968 82.5001 537.951Z" stroke="#2F528F" stroke-width="1.33333" stroke-miterlimit="8" fill="#4472C4" fill-rule="evenodd"/><text fill="#FFFFFF" font-family="Calibri,Calibri_MSFontService,sans-serif" font-weight="400" font-size="24" transform="matrix(1 0 0 0.9996 136.327 498)">[Client]</text><text fill="#FFFFFF" font-family="Calibri,Calibri_MSFontService,sans-serif" font-weight="400" font-size="24" transform="matrix(1 0 0 0.9996 121.561 527)">Developer</text><path d="M82.5001 630.581C82.5001 621.564 89.8129 614.254 98.8338 614.254L245.166 614.254C254.187 614.254 261.5 621.564 261.5 630.581L261.5 695.888C261.5 704.905 254.187 712.215 245.166 712.215L98.8338 712.215C89.8129 712.215 82.5001 704.905 82.5001 695.888Z" stroke="#2F528F" stroke-width="1.33333" stroke-miterlimit="8" fill="#4472C4" fill-rule="evenodd"/><text fill="#FFFFFF" font-family="Calibri,Calibri_MSFontService,sans-serif" font-weight="400" font-size="24" transform="matrix(1 0 0 0.9996 136.327 656)">[Client]</text><text fill="#FFFFFF" font-family="Calibri,Calibri_MSFontService,sans-serif" font-weight="400" font-size="24" transform="matrix(1 0 0 0.9996 121.561 685)">Developer</text><rect x="470.5" y="386.345" width="135" height="140.944" stroke="#507E32" stroke-width="1.33333" stroke-miterlimit="8" fill="#70AD47"/><text fill="#FFFFFF" font-family="Calibri,Calibri_MSFontService,sans-serif" font-weight="400" font-size="32" transform="matrix(1 0 0 0.9996 485.773 428)">[Server]</text><text fill="#FFFFFF" font-family="Calibri,Calibri_MSFontService,sans-serif" font-weight="400" font-size="32" transform="matrix(1 0 0 0.9996 518.266 466)">Git</text><text fill="#FFFFFF" font-family="Calibri,Calibri_MSFontService,sans-serif" font-weight="400" font-size="32" transform="matrix(1 0 0 0.9996 486.766 505)">Module</text><path d="M261.78 142.318 464.049 394.539 462.489 395.79 260.22 143.568ZM467.637 389.957 470.775 404.524 457.234 398.293Z" fill="#FF0000"/><path d="M261.491 322 462.173 435.153 461.19 436.895 260.509 323.741ZM463.795 429.565 472.133 441.917 457.245 441.174Z" fill="#FF0000"/><path d="M0.090343-0.995509 196.477 16.8267 196.297 18.8177-0.090343 0.995509ZM195.662 11.065 208.333 18.9063 194.457 24.3385Z" fill="#FF0000" transform="matrix(1.0004 0 0 -1 261 504.712)"/><path d="M0.587029-0.809072 199.211 143.304 198.037 144.922-0.587029 0.809072ZM201.459 137.937 208.333 151.158 193.632 148.724Z" fill="#FF0000" transform="matrix(1.0004 0 0 -1 261 662.953)"/><path d="M469.506 425.651 267.586 215.266 269.029 213.882 470.949 424.267ZM264.42 220.149 260 205.918 274.041 210.922Z" fill="#002060"/><path d="M469.615 457.074 273.314 360.07 274.201 358.278 470.501 455.281ZM271.998 365.739 263 353.858 277.907 353.791Z" fill="#002060"/><path d="M0.0533968-0.998173 197.314 9.55417 197.207 11.5505-0.0533968 0.998173ZM196.285 3.82666 209.238 11.1931 195.573 17.1356Z" fill="#002060" transform="matrix(-1.0004 0 0 1 470.322 474.81)"/><path d="M0.571013-0.820454 217.059 149.849 215.917 151.49-0.571013 0.820454ZM219.201 144.439 226.334 157.522 211.588 155.378Z" fill="#002060" transform="matrix(-1.0004 0 0 1 489.424 526.789)"/><text font-family="Calibri,Calibri_MSFontService,sans-serif" font-weight="400" font-size="24" transform="matrix(1 0 0 0.9996 330.631 195)">Git requests, e.g.</text><text font-family="Calibri,Calibri_MSFontService,sans-serif" font-weight="400" font-size="24" transform="matrix(1 0 0 0.9996 330.631 224)">clone, pull, push…</text><text font-family="Calibri,Calibri_MSFontService,sans-serif" font-weight="400" font-size="24" transform="matrix(1 0 0 0.9996 345.042 653)">Corresponding</text><text font-family="Calibri,Calibri_MSFontService,sans-serif" font-weight="400" font-size="24" transform="matrix(1 0 0 0.9996 345.042 682)">response</text><rect x="722.5" y="386.345" width="135" height="139.944" stroke="#AE5A21" stroke-width="1.33333" stroke-miterlimit="8" fill="#ED7D31"/><text fill="#FFFFFF" font-family="Calibri,Calibri_MSFontService,sans-serif" font-weight="400" font-size="32" transform="matrix(1 0 0 0.9996 741.933 428)">[Client]</text><text fill="#FFFFFF" font-family="Calibri,Calibri_MSFontService,sans-serif" font-weight="400" font-size="32" transform="matrix(1 0 0 0.9996 752.199 466)">CI/CD</text><text fill="#FFFFFF" font-family="Calibri,Calibri_MSFontService,sans-serif" font-weight="400" font-size="32" transform="matrix(1 0 0 0.9996 738.613 505)">Module</text><path d="M605 451.819 620 436.825 620 444.322 707 444.322 707 436.825 722 451.819 707 466.813 707 459.316 620 459.316 620 466.813Z" stroke="#2F528F" stroke-width="2" stroke-miterlimit="8" fill="#4472C4" fill-rule="evenodd"/><path d="M1023.5 199.421C1023.5 180.098 1039.17 164.434 1058.5 164.434L1198.5 164.434C1217.83 164.434 1233.5 180.098 1233.5 199.421L1233.5 542.282C1233.5 561.605 1217.83 577.269 1198.5 577.269L1058.5 577.269C1039.17 577.269 1023.5 561.605 1023.5 542.282Z" stroke="#2F528F" stroke-width="1.33333" stroke-miterlimit="8" fill="#C00000" fill-rule="evenodd"/><text fill="#FFFFFF" font-family="Calibri,Calibri_MSFontService,sans-serif" font-weight="400" font-size="43" transform="matrix(1 0 0 0.9996 1059.24 308)">[Server]</text><text fill="#FFFFFF" font-family="Calibri,Calibri_MSFontService,sans-serif" font-weight="400" font-size="43" transform="matrix(1 0 0 0.9996 1054.16 359)">3</text><text fill="#FFFFFF" font-family="Calibri,Calibri_MSFontService,sans-serif" font-weight="400" font-size="28" transform="matrix(1 0 0 0.9996 1075.83 346)">rd</text><text fill="#FFFFFF" font-family="Calibri,Calibri_MSFontService,sans-serif" font-weight="400" font-size="43" transform="matrix(1 0 0 0.9996 1110.11 359)">party</text><text fill="#FFFFFF" font-family="Calibri,Calibri_MSFontService,sans-serif" font-weight="400" font-size="43" transform="matrix(1 0 0 0.9996 1078.22 410)">CI/CD</text><text fill="#FFFFFF" font-family="Calibri,Calibri_MSFontService,sans-serif" font-weight="400" font-size="43" transform="matrix(1 0 0 0.9996 1052.95 462)">Platform</text><path d="M0.0106073-0.999544 152.888 0.622811 152.867 2.6219-0.0106073 0.999544ZM151.615-5.05542 164.872 1.74964 151.474 8.27184Z" fill="#358B39" transform="matrix(1.0004 0 0 -1 857 419.582)"/><path d="M6.3627e-07-0.9996 152.876-0.999503 152.876 0.999697-6.3627e-07 0.9996ZM151.544-6.6639 164.872 0.000104945 151.544 6.6641Z" fill="#9900FF" transform="matrix(-1.0004 0 0 1 1021.94 442.823)"/><text font-family="Calibri,Calibri_MSFontService,sans-serif" font-weight="400" font-size="24" transform="matrix(1 0 0 0.9996 933.423 470)">Task</text><text font-family="Calibri,Calibri_MSFontService,sans-serif" font-weight="400" font-size="24" transform="matrix(1 0 0 0.9996 933.423 499)">execute</text><text font-family="Calibri,Calibri_MSFontService,sans-serif" font-weight="400" font-size="24" transform="matrix(1 0 0 0.9996 933.423 528)">results,</text><text font-family="Calibri,Calibri_MSFontService,sans-serif" font-weight="400" font-size="24" transform="matrix(1 0 0 0.9996 933.423 557)">Etc.</text><text font-family="Calibri,Calibri_MSFontService,sans-serif" font-weight="400" font-size="24" transform="matrix(1 0 0 0.9996 930.251 406)">Events</text><rect x="765.5" y="614.254" width="369" height="184.926" stroke="#2F528F" stroke-linejoin="round" stroke-miterlimit="10" fill="none"/><text font-family="Calibri,Calibri_MSFontService,sans-serif" font-weight="400" font-size="24" transform="matrix(1 0 0 0.9996 909.754 641)">Legends</text><text font-family="Calibri,Calibri_MSFontService,sans-serif" font-weight="400" font-size="24" transform="matrix(1 0 0 0.9996 946.454 670)">Git</text><text font-family="Calibri,Calibri_MSFontService,sans-serif" font-weight="700" font-size="24" transform="matrix(1 0 0 0.9996 980.621 670)">client</text><text font-family="Calibri,Calibri_MSFontService,sans-serif" font-weight="400" font-size="24" transform="matrix(1 0 0 0.9996 1040.73 670)">requests</text><text font-family="Calibri,Calibri_MSFontService,sans-serif" font-weight="400" font-size="24" transform="matrix(1 0 0 0.9996 881.694 699)">Git response from</text><text font-family="Calibri,Calibri_MSFontService,sans-serif" font-weight="700" font-size="24" transform="matrix(1 0 0 0.9996 1062.66 699)">server</text><text font-family="Calibri,Calibri_MSFontService,sans-serif" font-style="italic" font-weight="700" font-size="24" transform="matrix(1 0 0 0.9996 906.387 728)">Internal</text><text font-family="Calibri,Calibri_MSFontService,sans-serif" font-weight="400" font-size="24" transform="matrix(1 0 0 0.9996 990.287 728)">event</text><text font-family="Calibri,Calibri_MSFontService,sans-serif" font-weight="400" font-size="24" transform="matrix(1 0 0 0.9996 1050.71 728)">triggers</text><text font-family="Calibri,Calibri_MSFontService,sans-serif" font-weight="400" font-size="24" transform="matrix(1 0 0 0.9996 891.687 757)">CI</text><text font-family="Calibri,Calibri_MSFontService,sans-serif" font-weight="400" font-size="24" transform="matrix(1 0 0 0.9996 916.021 757)">platform</text><text font-family="Calibri,Calibri_MSFontService,sans-serif" font-weight="400" font-size="24" transform="matrix(1 0 0 0.9996 1005.96 757)">API/RPC</text><text font-family="Calibri,Calibri_MSFontService,sans-serif" font-weight="700" font-size="24" transform="matrix(1 0 0 0.9996 1091.13 757)">call</text><text font-family="Calibri,Calibri_MSFontService,sans-serif" font-weight="400" font-size="24" transform="matrix(1 0 0 0.9996 949.587 785)">API/RPC</text><text font-family="Calibri,Calibri_MSFontService,sans-serif" font-weight="700" font-size="24" transform="matrix(1 0 0 0.9996 1034.75 785)">response</text><path d="M782 663.734 854.8 663.734 854.8 665.734 782 665.734ZM853.467 658.07 866.8 664.734 853.467 671.398Z" fill="#FF0000"/><path d="M782 692.723 854.8 692.723 854.8 694.722 782 694.722ZM853.467 687.058 866.8 693.723 853.467 700.386Z" fill="#002060"/><path d="M781 720.212 787.5 713.714 787.5 716.963 858.5 716.963 858.5 713.714 865 720.212 858.5 726.709 858.5 723.461 787.5 723.461 787.5 726.709Z" stroke="#2F528F" stroke-width="2" stroke-miterlimit="8" fill="#4472C4" fill-rule="evenodd"/><text font-family="Calibri,Calibri_MSFontService,sans-serif" font-weight="400" font-size="24" transform="matrix(1 0 0 0.9996 499.297 128)">C/S pattern #1</text><text font-family="Calibri,Calibri_MSFontService,sans-serif" font-weight="400" font-size="24" transform="matrix(1 0 0 0.9996 718.032 155)">C/S pattern #2</text><rect x="57" y="93.9624" width="597" height="644.742" stroke="#2F528F" stroke-width="2" stroke-miterlimit="8" stroke-dasharray="16 6" fill="none"/><rect x="704" y="124.95" width="558" height="469.812" stroke="#2F528F" stroke-width="2" stroke-miterlimit="8" stroke-dasharray="16 6" fill="none"/><path d="M783 747.701 854.069 747.701 854.069 749.7 783 749.7ZM852.736 742.036 866.069 748.701 852.736 755.364Z" fill="#358B39"/><path d="M783 775.69 852.13 775.69 852.13 777.689 783 777.689ZM850.797 770.025 864.13 776.689 850.797 783.353Z" fill="#9900FF"/></g></svg>