<svg width="1280" height="720" xmlns="http://www.w3.org/2000/svg" xmlns:xlink="http://www.w3.org/1999/xlink" overflow="hidden"><defs><clipPath id="clip0"><rect x="0" y="0" width="1280" height="720"/></clipPath></defs><g clip-path="url(#clip0)"><rect x="0" y="0" width="1280" height="720" fill="#FFFFFF"/><path d="M114.5 332.667C114.5 325.395 120.395 319.5 127.666 319.5L1187.33 319.5C1194.61 319.5 1200.5 325.395 1200.5 332.667L1200.5 385.334C1200.5 392.605 1194.61 398.5 1187.33 398.5L127.666 398.5C120.395 398.5 114.5 392.605 114.5 385.334Z" stroke="#507E32" stroke-width="1.33333" stroke-miterlimit="8" fill="#70AD47" fill-rule="evenodd"/><text fill="#FFFFFF" font-family="Calibri,Calibri_MSFontService,sans-serif" font-weight="400" font-size="43" transform="translate(545.022 373)">Standard API</text><path d="M341.5 90.0005C341.5 76.4693 352.469 65.5001 366 65.5001L938 65.5001C951.531 65.5001 962.5 76.4693 962.5 90.0005L962.5 188C962.5 201.531 951.531 212.5 938 212.5L366 212.5C352.469 212.5 341.5 201.531 341.5 188Z" stroke="#2F528F" stroke-width="1.33333" stroke-miterlimit="8" fill="#4472C4" fill-rule="evenodd"/><text fill="#FFFFFF" font-family="Calibri,Calibri_MSFontService,sans-serif" font-weight="400" font-size="53" transform="translate(391.95 156)">3</text><text fill="#FFFFFF" font-family="Calibri,Calibri_MSFontService,sans-serif" font-weight="400" font-size="36" transform="translate(418.95 140)">rd</text><text fill="#FFFFFF" font-family="Calibri,Calibri_MSFontService,sans-serif" font-weight="400" font-size="53" transform="translate(461.463 156)">party CI/CD platform</text><path d="M3.00003 27 3.0001 107.032-2.99989 107.032-2.99997 27ZM-15 30 0 0 15 30Z" transform="matrix(1 0 0 -1 657 319.032)"/><path d="M170.5 524.001C170.5 508.812 182.812 496.5 198.001 496.5L465.999 496.5C481.188 496.5 493.5 508.812 493.5 524.001L493.5 633.999C493.5 649.188 481.188 661.5 465.999 661.5L198.001 661.5C182.812 661.5 170.5 649.188 170.5 633.999Z" stroke="#AE5A21" stroke-width="1.33333" stroke-miterlimit="8" fill="#ED7D31" fill-rule="evenodd"/><text fill="#FFFFFF" font-family="Calibri,Calibri_MSFontService,sans-serif" font-weight="400" font-size="80" transform="translate(244.944 605)">Gitea</text><path d="M692.5 524.001C692.5 508.813 704.812 496.5 720.001 496.5L1133 496.5C1148.19 496.5 1160.5 508.813 1160.5 524.001L1160.5 633.999C1160.5 649.188 1148.19 661.5 1133 661.5L720.001 661.5C704.812 661.5 692.5 649.188 692.5 633.999Z" stroke="#AE5A21" stroke-width="1.33333" stroke-miterlimit="8" fill="#ED7D31" fill-rule="evenodd"/><text fill="#FFFFFF" font-family="Calibri,Calibri_MSFontService,sans-serif" font-weight="400" font-size="72" transform="translate(721.398 602)">GitHub/Gitlab</text><path d="M0 9.99999 10 0 20 9.99999 15 9.99999 15 88 20 88 10 98 0 88 5 88 5 9.99999Z" stroke="#2F528F" stroke-width="1.33333" stroke-miterlimit="8" fill="#4472C4" fill-rule="evenodd" transform="matrix(-1 0 0 1 341.5 398.5)"/><path d="M0 9.99999 10 0 20 9.99999 15 9.99999 15 88 20 88 10 98 0 88 5 88 5 9.99999Z" stroke="#2F528F" stroke-width="1.33333" stroke-miterlimit="8" fill="#4472C4" fill-rule="evenodd" transform="matrix(-1 0 0 1 952.5 398.5)"/></g></svg>