<svg width="1280" height="720" xmlns="http://www.w3.org/2000/svg" xmlns:xlink="http://www.w3.org/1999/xlink" overflow="hidden"><defs><clipPath id="clip0"><rect x="0" y="0" width="1280" height="720"/></clipPath></defs><g clip-path="url(#clip0)"><rect x="0" y="0" width="1280" height="720" fill="#FFFFFF"/><path d="M114.5 384.834C114.5 377.47 120.47 371.5 127.834 371.5L569.166 371.5C576.53 371.5 582.5 377.47 582.5 384.834L582.5 438.166C582.5 445.53 576.53 451.5 569.166 451.5L127.834 451.5C120.47 451.5 114.5 445.53 114.5 438.166Z" stroke="#507E32" stroke-width="1.33333" stroke-miterlimit="8" fill="#70AD47" fill-rule="evenodd"/><text fill="#FFFFFF" font-family="Calibri,Calibri_MSFontService,sans-serif" font-weight="400" font-size="43" transform="translate(236.338 425)">Standard API</text><path d="M692.5 384.834C692.5 377.47 698.47 371.5 705.834 371.5L1147.17 371.5C1154.53 371.5 1160.5 377.47 1160.5 384.834L1160.5 438.166C1160.5 445.53 1154.53 451.5 1147.17 451.5L705.834 451.5C698.47 451.5 692.5 445.53 692.5 438.166Z" stroke="#507E32" stroke-width="1.33333" stroke-miterlimit="8" fill="#70AD47" fill-rule="evenodd"/><text fill="#FFFFFF" font-family="Calibri,Calibri_MSFontService,sans-serif" font-weight="400" font-size="43" transform="translate(814.451 425)">Standard API</text><path d="M331.5 90.0008C331.5 76.4694 342.469 65.5001 356.001 65.5001L918.999 65.5001C932.531 65.5001 943.5 76.4694 943.5 90.0008L943.5 187.999C943.5 201.531 932.531 212.5 918.999 212.5L356.001 212.5C342.469 212.5 331.5 201.531 331.5 187.999Z" stroke="#2F528F" stroke-width="1.33333" stroke-miterlimit="8" fill="#4472C4" fill-rule="evenodd"/><text fill="#FFFFFF" font-family="Calibri,Calibri_MSFontService,sans-serif" font-weight="400" font-size="53" transform="translate(377.391 156)">3</text><text fill="#FFFFFF" font-family="Calibri,Calibri_MSFontService,sans-serif" font-weight="400" font-size="36" transform="translate(404.391 140)">rd</text><text fill="#FFFFFF" font-family="Calibri,Calibri_MSFontService,sans-serif" font-weight="400" font-size="53" transform="translate(446.904 156)">party CI/CD platform</text><path d="M21.2612 16.9104 143.271 138.231 139.041 142.486 17.0306 21.165ZM10.6967 31.7896 0 0 31.8497 10.5164ZM149.605 127.607 160.302 159.396 128.452 148.88Z" transform="matrix(1 0 0 -1 406 371.396)"/><path d="M827.336 350.306 754.076 236.335 759.123 233.09 832.383 347.062ZM840.855 338.049 844.458 371.396 815.619 354.271ZM745.604 245.347 742 212 770.84 229.125Z"/><path d="M170.5 524.001C170.5 508.812 182.812 496.5 198.001 496.5L465.999 496.5C481.188 496.5 493.5 508.812 493.5 524.001L493.5 633.999C493.5 649.188 481.188 661.5 465.999 661.5L198.001 661.5C182.812 661.5 170.5 649.188 170.5 633.999Z" stroke="#AE5A21" stroke-width="1.33333" stroke-miterlimit="8" fill="#ED7D31" fill-rule="evenodd"/><text fill="#FFFFFF" font-family="Calibri,Calibri_MSFontService,sans-serif" font-weight="400" font-size="80" transform="translate(244.944 605)">Gitea</text><path d="M692.5 524.001C692.5 508.813 704.812 496.5 720.001 496.5L1133 496.5C1148.19 496.5 1160.5 508.813 1160.5 524.001L1160.5 633.999C1160.5 649.188 1148.19 661.5 1133 661.5L720.001 661.5C704.812 661.5 692.5 649.188 692.5 633.999Z" stroke="#AE5A21" stroke-width="1.33333" stroke-miterlimit="8" fill="#ED7D31" fill-rule="evenodd"/><text fill="#FFFFFF" font-family="Calibri,Calibri_MSFontService,sans-serif" font-weight="400" font-size="72" transform="translate(721.398 602)">GitHub/Gitlab</text><path d="M0 10.5 10.5 0 21 10.5 15.75 10.5 15.75 34.5 21 34.5 10.5 45 0 34.5 5.25 34.5 5.25 10.5Z" stroke="#2F528F" stroke-width="1.33333" stroke-miterlimit="8" fill="#4472C4" fill-rule="evenodd" transform="matrix(-1 0 0 1 342.5 451.5)"/><path d="M0 10.5 10.5 0 21 10.5 15.75 10.5 15.75 34.5 21 34.5 10.5 45 0 34.5 5.25 34.5 5.25 10.5Z" stroke="#2F528F" stroke-width="1.33333" stroke-miterlimit="8" fill="#4472C4" fill-rule="evenodd" transform="matrix(-1 0 0 1 953.5 451.5)"/></g></svg>