<svg width="1280" height="720" xmlns="http://www.w3.org/2000/svg" xmlns:xlink="http://www.w3.org/1999/xlink" overflow="hidden"><defs><clipPath id="clip0"><rect x="0" y="0" width="1280" height="720"/></clipPath></defs><g clip-path="url(#clip0)"><rect x="0" y="0" width="1280" height="720" fill="#FFFFFF"/><path d="M175.5 373C175.5 367.201 180.201 362.5 186 362.5L1092 362.5C1097.8 362.5 1102.5 367.201 1102.5 373L1102.5 415C1102.5 420.799 1097.8 425.5 1092 425.5L186 425.5C180.201 425.5 175.5 420.799 175.5 415Z" stroke="#2F528F" stroke-width="1.33333" stroke-miterlimit="8" fill="#4472C4" fill-rule="evenodd"/><text fill="#FFFFFF" font-family="Cascadia Code PL,Cascadia Code PL_MSFontService,sans-serif" font-weight="400" font-size="43" transform="translate(435.737 408)">db.Engine</text><text fill="#FFFFFF" font-family="Calibri,Calibri_MSFontService,sans-serif" font-weight="400" font-size="43" transform="translate(685.737 408)">Interface</text><path d="M175.5 507.5C175.5 497.007 184.007 488.5 194.5 488.5L349.5 488.5C359.993 488.5 368.5 497.007 368.5 507.5L368.5 583.5C368.5 593.993 359.993 602.5 349.5 602.5L194.5 602.5C184.007 602.5 175.5 593.993 175.5 583.5Z" stroke="#BC8C00" stroke-width="1.33333" stroke-miterlimit="8" fill="#FFC000" fill-rule="evenodd"/><text fill="#FFFFFF" font-family="Calibri,Calibri_MSFontService,sans-serif" font-weight="400" font-size="37" transform="translate(217.856 558)">MySQL</text><path d="M412.5 506.667C412.5 496.081 421.081 487.5 431.667 487.5L586.333 487.5C596.919 487.5 605.5 496.081 605.5 506.667L605.5 583.333C605.5 593.919 596.919 602.5 586.333 602.5L431.667 602.5C421.081 602.5 412.5 593.919 412.5 583.333Z" stroke="#BC8C00" stroke-width="1.33333" stroke-miterlimit="8" fill="#FFC000" fill-rule="evenodd"/><text fill="#FFFFFF" font-family="Calibri,Calibri_MSFontService,sans-serif" font-weight="400" font-size="37" transform="translate(454.78 557)">MSSQL</text><path d="M662.5 506.667C662.5 496.081 671.081 487.5 681.667 487.5L837.333 487.5C847.919 487.5 856.5 496.081 856.5 506.667L856.5 583.333C856.5 593.919 847.919 602.5 837.333 602.5L681.667 602.5C671.081 602.5 662.5 593.919 662.5 583.333Z" stroke="#BC8C00" stroke-width="1.33333" stroke-miterlimit="8" fill="#FFC000" fill-rule="evenodd"/><text fill="#FFFFFF" font-family="Calibri,Calibri_MSFontService,sans-serif" font-weight="400" font-size="37" transform="translate(700.981 557)">SQLite3</text><path d="M898.5 507.5C898.5 497.007 907.007 488.5 917.5 488.5L1083.5 488.5C1093.99 488.5 1102.5 497.007 1102.5 507.5L1102.5 583.5C1102.5 593.993 1093.99 602.5 1083.5 602.5L917.5 602.5C907.007 602.5 898.5 593.993 898.5 583.5Z" stroke="#BC8C00" stroke-width="1.33333" stroke-miterlimit="8" fill="#FFC000" fill-rule="evenodd"/><text fill="#FFFFFF" font-family="Calibri,Calibri_MSFontService,sans-serif" font-weight="400" font-size="37" transform="translate(914.004 558)">Postgr</text><text fill="#FFFFFF" font-family="Calibri,Calibri_MSFontService,sans-serif" font-weight="400" font-size="37" transform="translate(1009.01 558)">e</text><text fill="#FFFFFF" font-family="Calibri,Calibri_MSFontService,sans-serif" font-weight="400" font-size="37" transform="translate(1027.51 558)">SQL</text><path d="M257.5 439.5 271.5 425.5 285.5 439.5 278.5 439.5 278.5 473.5 285.5 473.5 271.5 487.5 257.5 473.5 264.5 473.5 264.5 439.5Z" stroke="#2F528F" stroke-width="1.33333" stroke-miterlimit="8" fill="#4472C4" fill-rule="evenodd"/><path d="M494.5 443.5 508.5 429.5 522.5 443.5 515.5 443.5 515.5 478.5 522.5 478.5 508.5 492.5 494.5 478.5 501.5 478.5 501.5 443.5Z" stroke="#2F528F" stroke-width="1.33333" stroke-miterlimit="8" fill="#4472C4" fill-rule="evenodd"/><path d="M745.5 439.5 759.5 425.5 773.5 439.5 766.5 439.5 766.5 473.5 773.5 473.5 759.5 487.5 745.5 473.5 752.5 473.5 752.5 439.5Z" stroke="#2F528F" stroke-width="1.33333" stroke-miterlimit="8" fill="#4472C4" fill-rule="evenodd"/><path d="M986.5 439.5 1000.5 425.5 1014.5 439.5 1007.5 439.5 1007.5 473.5 1014.5 473.5 1000.5 487.5 986.5 473.5 993.5 473.5 993.5 439.5Z" stroke="#2F528F" stroke-width="1.33333" stroke-miterlimit="8" fill="#4472C4" fill-rule="evenodd"/><path d="M233.5 138.667C233.5 123.663 245.663 111.5 260.667 111.5L987.333 111.5C1002.34 111.5 1014.5 123.663 1014.5 138.667L1014.5 247.333C1014.5 262.337 1002.34 274.5 987.333 274.5L260.667 274.5C245.663 274.5 233.5 262.337 233.5 247.333Z" stroke="#787878" stroke-width="1.33333" stroke-miterlimit="8" fill="#A5A5A5" fill-rule="evenodd"/><text fill="#FFFFFF" font-family="Calibri,Calibri_MSFontService,sans-serif" font-weight="400" font-size="72" transform="translate(348.713 216)">Other Part of Code</text><path d="M609.5 288.5 623.5 274.5 637.5 288.5 630.5 288.5 630.5 352.5 637.5 352.5 623.5 366.5 609.5 352.5 616.5 352.5 616.5 288.5Z" stroke="#2F528F" stroke-width="1.33333" stroke-miterlimit="8" fill="#4472C4" fill-rule="evenodd"/></g></svg>