<svg width="1280" height="720" xmlns="http://www.w3.org/2000/svg" xmlns:xlink="http://www.w3.org/1999/xlink" overflow="hidden"><defs><clipPath id="clip0"><rect x="0" y="0" width="1280" height="720"/></clipPath></defs><g clip-path="url(#clip0)"><rect x="0" y="0" width="1280" height="720" fill="#FFFFFF"/><rect x="139.5" y="288.5" width="180" height="130" stroke="#000000" stroke-width="1.33333" stroke-miterlimit="8" fill="none"/><text font-family="Calibri,Calibri_MSFontService,sans-serif" font-weight="400" font-size="43" transform="translate(182.632 342)">Login</text><text font-family="Calibri,Calibri_MSFontService,sans-serif" font-weight="400" font-size="43" transform="translate(180.965 393)">starts</text><rect x="421.5" y="405.5" width="321" height="129" stroke="#000000" stroke-width="1.33333" stroke-miterlimit="8" fill="none"/><text font-family="Calibri,Calibri_MSFontService,sans-serif" font-weight="400" font-size="43" transform="translate(498.882 458)">One</text><text font-family="Calibri,Calibri_MSFontService,sans-serif" font-weight="400" font-size="43" transform="translate(570.882 458)">-</text><text font-family="Calibri,Calibri_MSFontService,sans-serif" font-weight="400" font-size="43" transform="translate(583.882 458)">time</text><text font-family="Calibri,Calibri_MSFontService,sans-serif" font-weight="400" font-size="43" transform="translate(486.975 509)">TOTP</text><text font-family="Calibri,Calibri_MSFontService,sans-serif" font-weight="400" font-size="43" transform="translate(586.289 509)">Cod</text><text font-family="Calibri,Calibri_MSFontService,sans-serif" font-weight="400" font-size="43" transform="translate(654.122 509)">e</text><rect x="421.5" y="174.5" width="321" height="130" stroke="#000000" stroke-width="1.33333" stroke-miterlimit="8" fill="none"/><text font-family="Calibri,Calibri_MSFontService,sans-serif" font-weight="400" font-size="43" transform="translate(491.965 228)">Username</text><text font-family="Calibri,Calibri_MSFontService,sans-serif" font-weight="400" font-size="43" transform="translate(482.892 279)">+</text><text font-family="Calibri,Calibri_MSFontService,sans-serif" font-weight="400" font-size="43" transform="translate(513.892 279)">passwor</text><text font-family="Calibri,Calibri_MSFontService,sans-serif" font-weight="400" font-size="43" transform="translate(656.872 279)">d</text><text font-family="Calibri,Calibri_MSFontService,sans-serif" font-weight="400" font-size="24" transform="translate(430.128 432)">2</text><text font-family="Calibri,Calibri_MSFontService,sans-serif" font-weight="400" font-size="24" transform="translate(442.295 432)">FA</text><path d="M0.621659-0.554964 94.3659 104.455 93.1226 105.565-0.621659 0.554964ZM97.8296 99.576 101.736 113.962 87.8831 108.455Z" fill="#4472C4" transform="matrix(1 0 0 -1 319 352.962)"/><path d="M319.629 352.453 413.487 460.305 412.23 461.399 318.371 353.547ZM417.012 455.469 420.736 469.904 406.954 464.222Z" fill="#4472C4"/><text font-family="Calibri,Calibri_MSFontService,sans-serif" font-weight="400" font-size="43" transform="translate(539.864 367)">AND</text><rect x="904.5" y="287.5" width="179" height="130" stroke="#000000" stroke-width="1.33333" stroke-miterlimit="8" fill="none"/><text font-family="Calibri,Calibri_MSFontService,sans-serif" font-weight="400" font-size="43" transform="translate(947.238 341)">Login</text><text font-family="Calibri,Calibri_MSFontService,sans-serif" font-weight="400" font-size="43" transform="translate(928.905 392)">success</text><path d="M742.476 238.316 894.97 344.484 894.017 345.852 741.524 239.684ZM897.209 338.935 904.342 352.025 889.59 349.878Z" fill="#4472C4"/><path d="M0.48953-0.674392 153.12 110.118 152.141 111.466-0.48953 0.674392ZM155.468 104.614 162.342 117.841 147.635 115.404Z" fill="#4472C4" transform="matrix(1 0 0 -1 742 469.841)"/></g></svg>