<svg width="1280" height="720" xmlns="http://www.w3.org/2000/svg" xmlns:xlink="http://www.w3.org/1999/xlink" overflow="hidden"><defs><clipPath id="clip0"><rect x="0" y="0" width="1280" height="720"/></clipPath></defs><g clip-path="url(#clip0)"><rect x="0" y="0" width="1280" height="720" fill="#FFFFFF"/><path d="M109.5 419.667C109.5 412.395 115.395 406.5 122.666 406.5L1182.33 406.5C1189.61 406.5 1195.5 412.395 1195.5 419.667L1195.5 472.334C1195.5 479.605 1189.61 485.5 1182.33 485.5L122.666 485.5C115.395 485.5 109.5 479.605 109.5 472.334Z" stroke="#507E32" stroke-width="1.33333" stroke-miterlimit="8" fill="#70AD47" fill-rule="evenodd"/><text fill="#FFFFFF" font-family="Calibri,Calibri_MSFontService,sans-serif" font-weight="400" font-size="43" transform="translate(540.493 460)">Standard API</text><path d="M127.5 99.0003C127.5 85.4692 138.469 74.5001 152 74.5001L575 74.5001C588.531 74.5001 599.5 85.4692 599.5 99.0003L599.5 197C599.5 210.531 588.531 221.5 575 221.5L152 221.5C138.469 221.5 127.5 210.531 127.5 197Z" stroke="#2F528F" stroke-width="1.33333" stroke-miterlimit="8" fill="#4472C4" fill-rule="evenodd"/><text fill="#FFFFFF" font-family="Calibri,Calibri_MSFontService,sans-serif" font-weight="400" font-size="53" transform="translate(168.418 165)">CI/CD platform #1</text><path d="M360.804 375.942 360 275.024 366 274.976 366.804 375.894ZM378.779 372.798 364.019 402.917 348.78 373.037Z"/><path d="M519.5 583C519.5 571.678 528.678 562.5 540 562.5L741 562.5C752.322 562.5 761.5 571.678 761.5 583L761.5 665C761.5 676.322 752.322 685.5 741 685.5L540 685.5C528.678 685.5 519.5 676.322 519.5 665Z" stroke="#AE5A21" stroke-width="1.33333" stroke-miterlimit="8" fill="#ED7D31" fill-rule="evenodd"/><text fill="#FFFFFF" font-family="Calibri,Calibri_MSFontService,sans-serif" font-weight="400" font-size="80" transform="translate(553.513 650)">Gitea</text><path d="M0 9.99998 10 0 20 9.99998 15 9.99998 15 67 20 67 10 77 0 67 5.00004 67 5.00004 9.99998Z" stroke="#2F528F" stroke-width="1.33333" stroke-miterlimit="8" fill="#4472C4" fill-rule="evenodd" transform="matrix(-1 0 0 1 652.5 485.5)"/><path d="M681.5 99.0003C681.5 85.4692 692.469 74.5001 706 74.5001L1129 74.5001C1142.53 74.5001 1153.5 85.4692 1153.5 99.0003L1153.5 197C1153.5 210.531 1142.53 221.5 1129 221.5L706 221.5C692.469 221.5 681.5 210.531 681.5 197Z" stroke="#2F528F" stroke-width="1.33333" stroke-miterlimit="8" fill="#4472C4" fill-rule="evenodd"/><text fill="#FFFFFF" font-family="Calibri,Calibri_MSFontService,sans-serif" font-weight="400" font-size="53" transform="translate(722.362 165)">CI/CD platform #2</text><rect x="127.5" y="224.5" width="472" height="51" stroke="#BC8C00" stroke-width="1.33333" stroke-miterlimit="8" fill="#FFC000"/><text font-family="Calibri,Calibri_MSFontService,sans-serif" font-weight="400" font-size="32" transform="translate(321.861 260)">API #1</text><rect x="681.5" y="224.5" width="472" height="51" stroke="#BC8C00" stroke-width="1.33333" stroke-miterlimit="8" fill="#FFC000"/><text font-family="Calibri,Calibri_MSFontService,sans-serif" font-weight="400" font-size="32" transform="translate(875.805 260)">API #2</text><path d="M3.00002 27 3.0001 127.917-2.99989 127.917-2.99998 27ZM-15 30 0 0 15 30Z" transform="matrix(1 0 0 -1 917 402.917)"/><rect x="826.5" y="549.5" width="369" height="97" stroke="#2F528F" stroke-linejoin="round" stroke-miterlimit="10" fill="none"/><text font-family="Calibri,Calibri_MSFontService,sans-serif" font-weight="400" font-size="24" transform="translate(970.649 576)">Legends</text><text font-family="Calibri,Calibri_MSFontService,sans-serif" font-weight="400" font-size="24" transform="translate(937.382 605)">API calls</text><text font-family="Calibri,Calibri_MSFontService,sans-serif" font-weight="700" font-size="24" transform="translate(1022.35 605)">from</text><text font-family="Calibri,Calibri_MSFontService,sans-serif" font-weight="400" font-size="24" transform="translate(1076.06 605)">CI</text><text font-family="Calibri,Calibri_MSFontService,sans-serif" font-weight="400" font-size="24" transform="translate(1100.39 605)">plarform</text><text font-family="Calibri,Calibri_MSFontService,sans-serif" font-style="italic" font-weight="700" font-size="24" transform="translate(1014.98 634)">Internal</text><text font-family="Calibri,Calibri_MSFontService,sans-serif" font-weight="400" font-size="24" transform="translate(1098.88 634)">channels</text><path d="M843 597 915.8 597 915.8 599 843 599ZM914.467 591.333 927.8 598 914.467 604.667Z"/><path d="M841 625.5 847.5 619 847.5 622.25 919.5 622.25 919.5 619 926 625.5 919.5 632 919.5 628.75 847.5 628.75 847.5 632Z" stroke="#2F528F" stroke-width="2" stroke-miterlimit="8" fill="#4472C4" fill-rule="evenodd"/></g></svg>