<svg width="1280" height="720" xmlns="http://www.w3.org/2000/svg" xmlns:xlink="http://www.w3.org/1999/xlink" overflow="hidden"><defs><clipPath id="clip0"><rect x="0" y="0" width="1280" height="720"/></clipPath></defs><g clip-path="url(#clip0)"><rect x="0" y="0" width="1280" height="720" fill="#FFFFFF"/><path d="M178.5 332C178.5 326.201 183.201 321.5 189 321.5L1095 321.5C1100.8 321.5 1105.5 326.201 1105.5 332L1105.5 374C1105.5 379.799 1100.8 384.5 1095 384.5L189 384.5C183.201 384.5 178.5 379.799 178.5 374Z" stroke="#2F528F" stroke-width="1.33333" stroke-miterlimit="8" fill="#4472C4" fill-rule="evenodd"/><text fill="#FFFFFF" font-family="Cascadia Code PL,Cascadia Code PL_MSFontService,sans-serif" font-weight="400" font-size="43" transform="translate(439.616 367)">db.Engine</text><text fill="#FFFFFF" font-family="Calibri,Calibri_MSFontService,sans-serif" font-weight="400" font-size="43" transform="translate(689.616 367)">Interface</text><path d="M178.5 466.5C178.5 456.007 187.007 447.5 197.5 447.5L353.5 447.5C363.993 447.5 372.5 456.007 372.5 466.5L372.5 542.5C372.5 552.993 363.993 561.5 353.5 561.5L197.5 561.5C187.007 561.5 178.5 552.993 178.5 542.5Z" stroke="#BC8C00" stroke-width="1.33333" stroke-miterlimit="8" fill="#FFC000" fill-rule="evenodd"/><text fill="#FFFFFF" font-family="Calibri,Calibri_MSFontService,sans-serif" font-weight="400" font-size="37" transform="translate(221.735 517)">MySQL</text><path d="M416.5 466.5C416.5 456.007 425.007 447.5 435.5 447.5L590.5 447.5C600.993 447.5 609.5 456.007 609.5 466.5L609.5 542.5C609.5 552.993 600.993 561.5 590.5 561.5L435.5 561.5C425.007 561.5 416.5 552.993 416.5 542.5Z" stroke="#BC8C00" stroke-width="1.33333" stroke-miterlimit="8" fill="#FFC000" fill-rule="evenodd"/><text fill="#FFFFFF" font-family="Calibri,Calibri_MSFontService,sans-serif" font-weight="400" font-size="37" transform="translate(458.659 516)">MSSQL</text><path d="M666.5 466.5C666.5 456.007 675.007 447.5 685.5 447.5L841.5 447.5C851.993 447.5 860.5 456.007 860.5 466.5L860.5 542.5C860.5 552.993 851.993 561.5 841.5 561.5L685.5 561.5C675.007 561.5 666.5 552.993 666.5 542.5Z" stroke="#BC8C00" stroke-width="1.33333" stroke-miterlimit="8" fill="#FFC000" fill-rule="evenodd"/><text fill="#FFFFFF" font-family="Calibri,Calibri_MSFontService,sans-serif" font-weight="400" font-size="37" transform="translate(704.86 516)">SQLite3</text><path d="M902.5 466.5C902.5 456.007 911.007 447.5 921.5 447.5L1086.5 447.5C1096.99 447.5 1105.5 456.007 1105.5 466.5L1105.5 542.5C1105.5 552.993 1096.99 561.5 1086.5 561.5L921.5 561.5C911.007 561.5 902.5 552.993 902.5 542.5Z" stroke="#BC8C00" stroke-width="1.33333" stroke-miterlimit="8" fill="#FFC000" fill-rule="evenodd"/><text fill="#FFFFFF" font-family="Calibri,Calibri_MSFontService,sans-serif" font-weight="400" font-size="37" transform="translate(917.883 517)">PostgreSQL</text><path d="M261.5 398.5 275.5 384.5 289.5 398.5 282.5 398.5 282.5 433.5 289.5 433.5 275.5 447.5 261.5 433.5 268.5 433.5 268.5 398.5Z" stroke="#2F528F" stroke-width="1.33333" stroke-miterlimit="8" fill="#00B050" fill-rule="evenodd"/><path d="M498.5 398.5 512.5 384.5 526.5 398.5 519.5 398.5 519.5 433.5 526.5 433.5 512.5 447.5 498.5 433.5 505.5 433.5 505.5 398.5Z" stroke="#2F528F" stroke-width="1.33333" stroke-miterlimit="8" fill="#00B050" fill-rule="evenodd"/><path d="M749.5 398.5 763.5 384.5 777.5 398.5 770.5 398.5 770.5 433.5 777.5 433.5 763.5 447.5 749.5 433.5 756.5 433.5 756.5 398.5Z" stroke="#2F528F" stroke-width="1.33333" stroke-miterlimit="8" fill="#00B050" fill-rule="evenodd"/><path d="M990.5 398.5 1004.5 384.5 1018.5 398.5 1011.5 398.5 1011.5 433.5 1018.5 433.5 1004.5 447.5 990.5 433.5 997.5 433.5 997.5 398.5Z" stroke="#2F528F" stroke-width="1.33333" stroke-miterlimit="8" fill="#00B050" fill-rule="evenodd"/><path d="M237.5 97.8342C237.5 82.738 249.738 70.5001 264.834 70.5001L991.166 70.5001C1006.26 70.5001 1018.5 82.738 1018.5 97.8342L1018.5 207.166C1018.5 222.262 1006.26 234.5 991.166 234.5L264.834 234.5C249.738 234.5 237.5 222.262 237.5 207.166Z" stroke="#787878" stroke-width="1.33333" stroke-miterlimit="8" fill="#A5A5A5" fill-rule="evenodd"/><text fill="#FFFFFF" font-family="Calibri,Calibri_MSFontService,sans-serif" font-weight="400" font-size="72" transform="translate(352.592 176)">Other Part of Code</text><path d="M613.5 248.5 627.5 234.5 641.5 248.5 634.5 248.5 634.5 307.5 641.5 307.5 627.5 321.5 613.5 307.5 620.5 307.5 620.5 248.5Z" stroke="#2F528F" stroke-width="1.33333" stroke-miterlimit="8" fill="#4472C4" fill-rule="evenodd"/><rect x="429.5" y="590.5" width="368" height="97" stroke="#2F528F" stroke-linejoin="round" stroke-miterlimit="10" fill="none"/><text font-family="Calibri,Calibri_MSFontService,sans-serif" font-weight="400" font-size="24" transform="translate(573.105 617)">Legends</text><text font-family="Calibri,Calibri_MSFontService,sans-serif" font-weight="400" font-size="24" transform="translate(554.085 646)">Database</text><text font-family="Calibri,Calibri_MSFontService,sans-serif" font-weight="400" font-size="24" transform="translate(644.905 646)">-</text><text font-family="Calibri,Calibri_MSFontService,sans-serif" font-weight="400" font-size="24" transform="translate(652.239 646)">specific driver</text><text font-family="Calibri,Calibri_MSFontService,sans-serif" font-style="italic" font-weight="700" font-size="24" transform="translate(617.439 675)">Internal</text><text font-family="Calibri,Calibri_MSFontService,sans-serif" font-weight="400" font-size="24" transform="translate(701.339 675)">channels</text><path d="M444 666.5 450.5 660 450.5 663.25 521.5 663.25 521.5 660 528 666.5 521.5 673 521.5 669.75 450.5 669.75 450.5 673Z" stroke="#2F528F" stroke-width="2" stroke-miterlimit="8" fill="#4472C4" fill-rule="evenodd"/><path d="M444 638.5 450.5 632 450.5 635.25 521.5 635.25 521.5 632 528 638.5 521.5 645 521.5 641.75 450.5 641.75 450.5 645Z" stroke="#2F528F" stroke-width="2" stroke-miterlimit="8" fill="#00B050" fill-rule="evenodd"/></g></svg>