<svg width="1280" height="720" xmlns="http://www.w3.org/2000/svg" xmlns:xlink="http://www.w3.org/1999/xlink" overflow="hidden"><defs><filter id="fx0" x="-10%" y="-10%" width="120%" height="120%" filterUnits="userSpaceOnUse" primitiveUnits="userSpaceOnUse"><feComponentTransfer color-interpolation-filters="sRGB"><feFuncR type="discrete" tableValues="0 0"/><feFuncG type="discrete" tableValues="0 0"/><feFuncB type="discrete" tableValues="0 0"/><feFuncA type="linear" slope="0.631373" intercept="0"/></feComponentTransfer><feGaussianBlur stdDeviation="2 2"/></filter><filter id="fx1" x="-10%" y="-10%" width="120%" height="120%" filterUnits="userSpaceOnUse" primitiveUnits="userSpaceOnUse"><feComponentTransfer color-interpolation-filters="sRGB"><feFuncR type="discrete" tableValues="0 0"/><feFuncG type="discrete" tableValues="0 0"/><feFuncB type="discrete" tableValues="0 0"/><feFuncA type="linear" slope="0.631373" intercept="0"/></feComponentTransfer><feGaussianBlur stdDeviation="2 2"/></filter><clipPath id="clip2"><rect x="0" y="0" width="1280" height="720"/></clipPath><clipPath id="clip3"><rect x="-2" y="-2" width="314" height="214"/></clipPath><clipPath id="clip4"><rect x="0" y="0" width="311" height="211"/></clipPath><clipPath id="clip5"><rect x="13" y="11" width="163" height="124"/></clipPath><clipPath id="clip6"><rect x="0" y="0" width="189" height="151"/></clipPath><linearGradient x1="923.269" y1="469.409" x2="923.269" y2="666" gradientUnits="userSpaceOnUse" spreadMethod="reflect" id="fill7"><stop offset="0" stop-color="#AFAFAF"/><stop offset="0.5" stop-color="#A5A5A5"/><stop offset="1" stop-color="#929292"/></linearGradient></defs><g clip-path="url(#clip2)"><rect x="0" y="0" width="1280" height="720" fill="#FFFFFF"/><rect x="166.5" y="257.5" width="179" height="129" stroke="#000000" stroke-width="1.33333" stroke-miterlimit="8" fill="none"/><text font-family="Calibri,Calibri_MSFontService,sans-serif" font-weight="400" font-size="43" transform="translate(208.813 311)">Login</text><text font-family="Calibri,Calibri_MSFontService,sans-serif" font-weight="400" font-size="43" transform="translate(207.147 362)">starts</text><rect x="447.5" y="374.5" width="321" height="129" stroke="#000000" stroke-width="1.33333" stroke-miterlimit="8" fill="none"/><text font-family="Calibri,Calibri_MSFontService,sans-serif" font-weight="400" font-size="43" transform="translate(525.063 427)">One</text><text font-family="Calibri,Calibri_MSFontService,sans-serif" font-weight="400" font-size="43" transform="translate(597.063 427)">-</text><text font-family="Calibri,Calibri_MSFontService,sans-serif" font-weight="400" font-size="43" transform="translate(610.063 427)">time</text><text font-family="Calibri,Calibri_MSFontService,sans-serif" font-weight="400" font-size="43" transform="translate(526.177 478)">2FA Cod</text><text font-family="Calibri,Calibri_MSFontService,sans-serif" font-weight="400" font-size="43" transform="translate(667.283 478)">e</text><rect x="447.5" y="143.5" width="321" height="130" stroke="#000000" stroke-width="1.33333" stroke-miterlimit="8" fill="none"/><text font-family="Calibri,Calibri_MSFontService,sans-serif" font-weight="400" font-size="43" transform="translate(518.147 197)">Username</text><text font-family="Calibri,Calibri_MSFontService,sans-serif" font-weight="400" font-size="43" transform="translate(509.073 248)">+</text><text font-family="Calibri,Calibri_MSFontService,sans-serif" font-weight="400" font-size="43" transform="translate(540.073 248)">passwor</text><text font-family="Calibri,Calibri_MSFontService,sans-serif" font-weight="400" font-size="43" transform="translate(683.053 248)">d</text><text font-family="Calibri,Calibri_MSFontService,sans-serif" font-weight="400" font-size="24" transform="translate(456.31 401)">2</text><text font-family="Calibri,Calibri_MSFontService,sans-serif" font-weight="400" font-size="24" transform="translate(468.476 401)">FA</text><path d="M0.621659-0.554964 94.3659 104.455 93.1226 105.565-0.621659 0.554964ZM97.8296 99.576 101.736 113.962 87.8831 108.455Z" fill="#4472C4" transform="matrix(1 0 0 -1 345 321.962)"/><path d="M345.629 321.453 439.487 429.305 438.23 430.399 344.371 322.547ZM443.012 424.469 446.736 438.904 432.954 433.222Z" fill="#4472C4"/><text font-family="Calibri,Calibri_MSFontService,sans-serif" font-weight="400" font-size="43" transform="translate(566.045 336)">AND</text><rect x="930.5" y="256.5" width="180" height="130" stroke="#000000" stroke-width="1.33333" stroke-miterlimit="8" fill="none"/><text font-family="Calibri,Calibri_MSFontService,sans-serif" font-weight="400" font-size="43" transform="translate(973.42 310)">Login</text><text font-family="Calibri,Calibri_MSFontService,sans-serif" font-weight="400" font-size="43" transform="translate(955.086 361)">success</text><path d="M768.476 207.316 920.97 313.484 920.017 314.852 767.524 208.684ZM923.209 307.935 930.342 321.025 915.59 318.878Z" fill="#4472C4"/><path d="M0.48953-0.674392 153.12 110.118 152.141 111.466-0.48953 0.674392ZM155.468 104.614 162.342 117.841 147.635 115.404Z" fill="#4472C4" transform="matrix(1 0 0 -1 768 438.841)"/><g clip-path="url(#clip3)" filter="url(#fx0)" transform="translate(768 464)"><g clip-path="url(#clip4)"><path d="M48 53 90.6667 53 6.5383 7.40853 154.667 53 304 53 304 78.1666 304 78.1666 304 115.917 304 204 154.667 204 90.6667 204 90.6667 204 48 204 48 115.917 48 78.1666 48 78.1666Z" fill="#FF0000" fill-rule="evenodd"/></g></g><g clip-path="url(#clip5)" filter="url(#fx1)" transform="translate(850 521)"><g clip-path="url(#clip6)"><path d="M12.1406-2.14453C12.1406-2.01953 12.1367-1.91016 12.1289-1.81641 12.1211-1.72266 12.1074-1.64062 12.0879-1.57031 12.0684-1.5 12.043-1.4375 12.0117-1.38281 11.9805-1.32812 11.9258-1.26172 11.8477-1.18359 11.7695-1.10547 11.6055-0.986328 11.3555-0.826172 11.1055-0.666016 10.7949-0.509766 10.4238-0.357422 10.0527-0.205078 9.62695-0.0761719 9.14648 0.0292969 8.66602 0.134766 8.14062 0.1875 7.57031 0.1875 6.58594 0.1875 5.69727 0.0234375 4.9043-0.304688 4.11133-0.632812 3.43555-1.11719 2.87695-1.75781 2.31836-2.39844 1.88867-3.18945 1.58789-4.13086 1.28711-5.07227 1.13672-6.15625 1.13672-7.38281 1.13672-8.64062 1.29883-9.76172 1.62305-10.7461 1.94727-11.7305 2.40234-12.5645 2.98828-13.248 3.57422-13.9316 4.27539-14.4531 5.0918-14.8125 5.9082-15.1719 6.8125-15.3516 7.80469-15.3516 8.24219-15.3516 8.66797-15.3105 9.08203-15.2285 9.49609-15.1465 9.87891-15.043 10.2305-14.918 10.582-14.793 10.8945-14.6484 11.168-14.4844 11.4414-14.3203 11.6309-14.1855 11.7363-14.0801 11.8418-13.9746 11.9102-13.8945 11.9414-13.8398 11.9727-13.7852 11.998-13.7207 12.0176-13.6465 12.0371-13.5723 12.0527-13.4844 12.0645-13.3828 12.0762-13.2812 12.082-13.1602 12.082-13.0195 12.082-12.8633 12.0742-12.7305 12.0585-12.6211 12.0428-12.5117 12.0193-12.4199 11.9878-12.3457 11.9564-12.2715 11.9191-12.2168 11.8759-12.1816 11.8326-12.1465 11.7796-12.1289 11.7167-12.1289 11.6069-12.1289 11.4537-12.2051 11.2573-12.3574 11.0609-12.5098 10.8076-12.6777 10.4973-12.8613 10.1871-13.0449 9.81012-13.2129 9.36639-13.3652 8.92267-13.5176 8.39056-13.5937 7.77008-13.5938 7.09454-13.5937 6.47992-13.459 5.92621-13.1895 5.3725-12.9199 4.89929-12.5234 4.50659-12 4.11389-11.4766 3.80954-10.8379 3.59354-10.084 3.37753-9.33008 3.26953-8.46875 3.26953-7.5 3.26953-6.53906 3.3736-5.68945 3.58173-4.95117 3.78986-4.21289 4.08832-3.5957 4.47711-3.09961 4.86591-2.60352 5.34305-2.22852 5.90854-1.97461 6.47403-1.7207 7.11414-1.59375 7.82886-1.59375 8.43359-1.59375 8.96176-1.66797 9.41336-1.81641 9.86496-1.96484 10.2498-2.13086 10.5678-2.31445 10.8859-2.49805 11.147-2.66406 11.3513-2.8125 11.5555-2.96094 11.7165-3.03516 11.8343-3.03516 11.8893-3.03516 11.9365-3.02344 11.9757-3 12.015-2.97656 12.0464-2.93164 12.0699-2.86523 12.0935-2.79883 12.1112-2.70703 12.123-2.58984 12.1347-2.47266 12.1406-2.32422 12.1406-2.14453ZM22.5716-0.28125C22.5716-0.1875 22.5404-0.117187 22.4779-0.0703125 22.4154-0.0234375 22.3294 0.0117188 22.2201 0.0351562 22.1107 0.0585937 21.9505 0.0703125 21.7396 0.0703125 21.5365 0.0703125 21.3743 0.0585937 21.2533 0.0351562 21.1322 0.0117188 21.0443-0.0234375 20.9896-0.0703125 20.9349-0.117187 20.9076-0.1875 20.9076-0.28125L20.9076-1.33594C20.4466-0.84375 19.9329-0.460937 19.3665-0.1875 18.8001 0.0859375 18.2005 0.222656 17.5677 0.222656 17.013 0.222656 16.5111 0.150391 16.0618 0.00585938 15.6126-0.138672 15.2298-0.347656 14.9134-0.621094 14.597-0.894531 14.3509-1.23047 14.1751-1.62891 13.9993-2.02734 13.9115-2.48047 13.9115-2.98828 13.9115-3.58203 14.0326-4.09766 14.2747-4.53516 14.5169-4.97266 14.8646-5.33594 15.3177-5.625 15.7708-5.91406 16.3255-6.13086 16.9818-6.27539 17.638-6.41992 18.3763-6.49219 19.1966-6.49219L20.6497-6.49219 20.6497-7.3125C20.6497-7.71875 20.6068-8.07812 20.5208-8.39062 20.4349-8.70312 20.2962-8.96289 20.1048-9.16992 19.9134-9.37695 19.6654-9.5332 19.3607-9.63867 19.056-9.74414 18.681-9.79688 18.2357-9.79688 17.7591-9.79688 17.3314-9.74023 16.9525-9.62695 16.5736-9.51367 16.2415-9.38867 15.9564-9.25195 15.6712-9.11523 15.4329-8.99023 15.2415-8.87695 15.0501-8.76367 14.9076-8.70703 14.8138-8.70703 14.7513-8.70703 14.6966-8.72266 14.6497-8.75391 14.6029-8.78516 14.5618-8.83203 14.5267-8.89453 14.4915-8.95703 14.4661-9.03711 14.4505-9.13477 14.4349-9.23242 14.4271-9.33984 14.4271-9.45703 14.4271-9.65234 14.4408-9.80664 14.4681-9.91992 14.4954-10.0332 14.5618-10.1406 14.6673-10.2422 14.7728-10.3438 14.9544-10.4629 15.2122-10.5996 15.4701-10.7363 15.7669-10.8613 16.1029-10.9746 16.4388-11.0879 16.806-11.1816 17.2044-11.2559 17.6029-11.3301 18.0052-11.3672 18.4115-11.3672 19.1693-11.3672 19.8138-11.2812 20.3451-11.1094 20.8763-10.9375 21.306-10.6855 21.6341-10.3535 21.9622-10.0215 22.2005-9.60938 22.349-9.11719 22.4974-8.625 22.5716-8.05078 22.5716-7.39453ZM20.6497-5.09766 18.9974-5.09766C18.4661-5.09766 18.0052-5.05273 17.6146-4.96289 17.224-4.87305 16.8997-4.74023 16.6419-4.56445 16.3841-4.38867 16.1947-4.17773 16.0736-3.93164 15.9525-3.68555 15.8919-3.40234 15.8919-3.08203 15.8919-2.53516 16.0658-2.09961 16.4134-1.77539 16.7611-1.45117 17.2474-1.28906 17.8724-1.28906 18.3802-1.28906 18.8509-1.41797 19.2845-1.67578 19.7181-1.93359 20.1732-2.32812 20.6497-2.85938ZM35.2083-0.292969C35.2083-0.230469 35.1927-0.177734 35.1615-0.134766 35.1302-0.0917969 35.0794-0.0546875 35.0091-0.0234375 34.9388 0.0078125 34.8411 0.03125 34.7161 0.046875 34.5911 0.0625 34.4349 0.0703125 34.2474 0.0703125 34.0521 0.0703125 33.8919 0.0625 33.7669 0.046875 33.6419 0.03125 33.5443 0.0078125 33.474-0.0234375 33.4036-0.0546875 33.3529-0.0917969 33.3216-0.134766 33.2904-0.177734 33.2747-0.230469 33.2747-0.292969L33.2747-6.46875C33.2747-7.07031 33.2279-7.55469 33.1341-7.92188 33.0404-8.28906 32.9036-8.60547 32.724-8.87109 32.5443-9.13672 32.3119-9.33984 32.0267-9.48047 31.7415-9.62109 31.4115-9.69141 31.0365-9.69141 30.5521-9.69141 30.0677-9.51953 29.5833-9.17578 29.099-8.83203 28.5911-8.32812 28.0599-7.66406L28.0599-0.292969C28.0599-0.230469 28.0443-0.177734 28.013-0.134766 27.9818-0.0917969 27.931-0.0546875 27.8607-0.0234375 27.7904 0.0078125 27.6927 0.03125 27.5677 0.046875 27.4427 0.0625 27.2826 0.0703125 27.0872 0.0703125 26.8997 0.0703125 26.7435 0.0625 26.6185 0.046875 26.4935 0.03125 26.3939 0.0078125 26.3197-0.0234375 26.2454-0.0546875 26.1947-0.0917969 26.1673-0.134766 26.14-0.177734 26.1263-0.230469 26.1263-0.292969L26.1263-10.8398C26.1263-10.9023 26.138-10.9551 26.1615-10.998 26.1849-11.041 26.2318-11.0801 26.3021-11.1152 26.3724-11.1504 26.4622-11.1738 26.5716-11.1855 26.681-11.1973 26.8255-11.2031 27.0052-11.2031 27.1771-11.2031 27.3197-11.1973 27.4329-11.1855 27.5462-11.1738 27.6341-11.1504 27.6966-11.1152 27.7591-11.0801 27.804-11.041 27.8314-10.998 27.8587-10.9551 27.8724-10.9023 27.8724-10.8398L27.8724-9.44531C28.4661-10.1094 29.0579-10.5957 29.6478-10.9043 30.2376-11.2129 30.8333-11.3672 31.4349-11.3672 32.138-11.3672 32.7298-11.248 33.2103-11.0098 33.6908-10.7715 34.0794-10.4531 34.3763-10.0547 34.6732-9.65625 34.8861-9.18945 35.015-8.6543 35.1439-8.11914 35.2083-7.47656 35.2083-6.72656ZM47.8281-0.292969C47.8281-0.230469 47.8145-0.175781 47.7871-0.128906 47.7598-0.0820312 47.7129-0.0449219 47.6465-0.0175781 47.5801 0.00976562 47.4922 0.03125 47.3828 0.046875 47.2734 0.0625 47.1406 0.0703125 46.9844 0.0703125 46.8203 0.0703125 46.6836 0.0625 46.5742 0.046875 46.4648 0.03125 46.375 0.00976562 46.3047-0.0175781 46.2344-0.0449219 46.1836-0.0820312 46.1523-0.128906 46.1211-0.175781 46.1055-0.230469 46.1055-0.292969L46.1055-1.6875C45.5508-1.08594 44.9746-0.617187 44.377-0.28125 43.7793 0.0546875 43.125 0.222656 42.4141 0.222656 41.6406 0.222656 40.9805 0.0722656 40.4336-0.228516 39.8867-0.529297 39.4434-0.935547 39.1035-1.44727 38.7637-1.95898 38.5156-2.56055 38.3594-3.25195 38.2031-3.94336 38.125-4.67188 38.125-5.4375 38.125-6.34375 38.2227-7.16211 38.418-7.89258 38.6133-8.62305 38.9023-9.24609 39.2852-9.76172 39.668-10.2773 40.1426-10.6738 40.709-10.9512 41.2754-11.2285 41.9297-11.3672 42.6719-11.3672 43.2891-11.3672 43.8535-11.2324 44.3652-10.9629 44.877-10.6934 45.3828-10.2969 45.8828-9.77344L45.8828-15.9023C45.8828-15.957 45.8965-16.0098 45.9238-16.0605 45.9512-16.1113 46.0039-16.1504 46.082-16.1777 46.1602-16.2051 46.2598-16.2285 46.3809-16.248 46.502-16.2676 46.6562-16.2773 46.8438-16.2773 47.0391-16.2773 47.1992-16.2676 47.3242-16.248 47.4492-16.2285 47.5469-16.2051 47.6172-16.1777 47.6875-16.1504 47.7402-16.1113 47.7754-16.0605 47.8105-16.0098 47.8281-15.957 47.8281-15.9023ZM45.8828-7.71094C45.3594-8.35938 44.8535-8.85352 44.3652-9.19336 43.877-9.5332 43.3672-9.70312 42.8359-9.70312 42.3438-9.70312 41.9258-9.58594 41.582-9.35156 41.2383-9.11719 40.959-8.80859 40.7441-8.42578 40.5293-8.04297 40.373-7.60937 40.2754-7.125 40.1777-6.64062 40.1289-6.14844 40.1289-5.64844 40.1289-5.11719 40.1699-4.59766 40.252-4.08984 40.334-3.58203 40.4766-3.13086 40.6797-2.73633 40.8828-2.3418 41.1523-2.02539 41.4883-1.78711 41.8242-1.54883 42.2461-1.42969 42.7539-1.42969 43.0117-1.42969 43.2598-1.46484 43.498-1.53516 43.7363-1.60547 43.9805-1.72266 44.2305-1.88672 44.4805-2.05078 44.7422-2.26367 45.0156-2.52539 45.2891-2.78711 45.5781-3.10938 45.8828-3.49219ZM53.3932-0.292969C53.3932-0.230469 53.3776-0.177734 53.3464-0.134766 53.3151-0.0917969 53.2643-0.0546875 53.194-0.0234375 53.1237 0.0078125 53.026 0.03125 52.901 0.046875 52.776 0.0625 52.6159 0.0703125 52.4206 0.0703125 52.2331 0.0703125 52.0768 0.0625 51.9518 0.046875 51.8268 0.03125 51.7272 0.0078125 51.653-0.0234375 51.5788-0.0546875 51.528-0.0917969 51.5007-0.134766 51.4733-0.177734 51.4596-0.230469 51.4596-0.292969L51.4596-10.8398C51.4596-10.8945 51.4733-10.9453 51.5007-10.9922 51.528-11.0391 51.5788-11.0781 51.653-11.1094 51.7272-11.1406 51.8268-11.1641 51.9518-11.1797 52.0768-11.1953 52.2331-11.2031 52.4206-11.2031 52.6159-11.2031 52.776-11.1953 52.901-11.1797 53.026-11.1641 53.1237-11.1406 53.194-11.1094 53.2643-11.0781 53.3151-11.0391 53.3464-10.9922 53.3776-10.9453 53.3932-10.8945 53.3932-10.8398ZM53.6159-14.4023C53.6159-13.9492 53.5299-13.6406 53.3581-13.4766 53.1862-13.3125 52.8698-13.2305 52.4089-13.2305 51.9557-13.2305 51.6452-13.3105 51.4772-13.4707 51.3092-13.6309 51.2253-13.9336 51.2253-14.3789 51.2253-14.832 51.3112-15.1406 51.4831-15.3047 51.6549-15.4687 51.9714-15.5508 52.4323-15.5508 52.8854-15.5508 53.196-15.4707 53.3639-15.3105 53.5319-15.1504 53.6159-14.8477 53.6159-14.4023ZM65.9948-0.292969C65.9948-0.230469 65.9811-0.175781 65.9538-0.128906 65.9264-0.0820312 65.8796-0.0449219 65.8132-0.0175781 65.7467 0.00976562 65.6589 0.03125 65.5495 0.046875 65.4401 0.0625 65.3073 0.0703125 65.151 0.0703125 64.987 0.0703125 64.8503 0.0625 64.7409 0.046875 64.6315 0.03125 64.5417 0.00976562 64.4714-0.0175781 64.401-0.0449219 64.3503-0.0820312 64.319-0.128906 64.2878-0.175781 64.2721-0.230469 64.2721-0.292969L64.2721-1.6875C63.7174-1.08594 63.1413-0.617187 62.5436-0.28125 61.946 0.0546875 61.2917 0.222656 60.5807 0.222656 59.8073 0.222656 59.1471 0.0722656 58.6003-0.228516 58.0534-0.529297 57.61-0.935547 57.2702-1.44727 56.9303-1.95898 56.6823-2.56055 56.526-3.25195 56.3698-3.94336 56.2917-4.67188 56.2917-5.4375 56.2917-6.34375 56.3893-7.16211 56.5846-7.89258 56.7799-8.62305 57.069-9.24609 57.4518-9.76172 57.8346-10.2773 58.3092-10.6738 58.8757-10.9512 59.4421-11.2285 60.0964-11.3672 60.8385-11.3672 61.4557-11.3672 62.0202-11.2324 62.5319-10.9629 63.0436-10.6934 63.5495-10.2969 64.0495-9.77344L64.0495-15.9023C64.0495-15.957 64.0632-16.0098 64.0905-16.0605 64.1178-16.1113 64.1706-16.1504 64.2487-16.1777 64.3268-16.2051 64.4264-16.2285 64.5475-16.248 64.6686-16.2676 64.8229-16.2773 65.0104-16.2773 65.2057-16.2773 65.3659-16.2676 65.4909-16.248 65.6159-16.2285 65.7135-16.2051 65.7839-16.1777 65.8542-16.1504 65.9069-16.1113 65.9421-16.0605 65.9772-16.0098 65.9948-15.957 65.9948-15.9023ZM64.0495-7.71094C63.526-8.35938 63.0202-8.85352 62.5319-9.19336 62.0436-9.5332 61.5339-9.70312 61.0026-9.70312 60.5104-9.70312 60.0924-9.58594 59.7487-9.35156 59.4049-9.11719 59.1256-8.80859 58.9108-8.42578 58.696-8.04297 58.5397-7.60937 58.4421-7.125 58.3444-6.64062 58.2956-6.14844 58.2956-5.64844 58.2956-5.11719 58.3366-4.59766 58.4186-4.08984 58.5006-3.58203 58.6432-3.13086 58.8464-2.73633 59.0495-2.3418 59.319-2.02539 59.6549-1.78711 59.9909-1.54883 60.4128-1.42969 60.9206-1.42969 61.1784-1.42969 61.4264-1.46484 61.6647-1.53516 61.903-1.60547 62.1471-1.72266 62.3971-1.88672 62.6471-2.05078 62.9089-2.26367 63.1823-2.52539 63.4557-2.78711 63.7448-3.10938 64.0495-3.49219ZM77.5716-0.28125C77.5716-0.1875 77.5404-0.117187 77.4779-0.0703125 77.4154-0.0234375 77.3294 0.0117188 77.2201 0.0351562 77.1107 0.0585937 76.9505 0.0703125 76.7396 0.0703125 76.5365 0.0703125 76.3744 0.0585937 76.2533 0.0351562 76.1322 0.0117188 76.0443-0.0234375 75.9896-0.0703125 75.9349-0.117187 75.9076-0.1875 75.9076-0.28125L75.9076-1.33594C75.4466-0.84375 74.9329-0.460937 74.3665-0.1875 73.8001 0.0859375 73.2005 0.222656 72.5677 0.222656 72.013 0.222656 71.5111 0.150391 71.0619 0.00585938 70.6126-0.138672 70.2298-0.347656 69.9134-0.621094 69.597-0.894531 69.3509-1.23047 69.1751-1.62891 68.9994-2.02734 68.9115-2.48047 68.9115-2.98828 68.9115-3.58203 69.0326-4.09766 69.2747-4.53516 69.5169-4.97266 69.8646-5.33594 70.3177-5.625 70.7708-5.91406 71.3255-6.13086 71.9818-6.27539 72.638-6.41992 73.3763-6.49219 74.1966-6.49219L75.6497-6.49219 75.6497-7.3125C75.6497-7.71875 75.6068-8.07812 75.5208-8.39062 75.4349-8.70312 75.2962-8.96289 75.1048-9.16992 74.9134-9.37695 74.6654-9.5332 74.3607-9.63867 74.056-9.74414 73.681-9.79688 73.2357-9.79688 72.7591-9.79688 72.3314-9.74023 71.9525-9.62695 71.5736-9.51367 71.2415-9.38867 70.9564-9.25195 70.6712-9.11523 70.4329-8.99023 70.2415-8.87695 70.0501-8.76367 69.9076-8.70703 69.8138-8.70703 69.7513-8.70703 69.6966-8.72266 69.6497-8.75391 69.6029-8.78516 69.5619-8.83203 69.5267-8.89453 69.4915-8.95703 69.4661-9.03711 69.4505-9.13477 69.4349-9.23242 69.4271-9.33984 69.4271-9.45703 69.4271-9.65234 69.4408-9.80664 69.4681-9.91992 69.4954-10.0332 69.5619-10.1406 69.6673-10.2422 69.7728-10.3438 69.9544-10.4629 70.2122-10.5996 70.4701-10.7363 70.7669-10.8613 71.1029-10.9746 71.4388-11.0879 71.806-11.1816 72.2044-11.2559 72.6029-11.3301 73.0052-11.3672 73.4115-11.3672 74.1693-11.3672 74.8138-11.2812 75.3451-11.1094 75.8763-10.9375 76.306-10.6855 76.6341-10.3535 76.9622-10.0215 77.2005-9.60938 77.349-9.11719 77.4974-8.625 77.5716-8.05078 77.5716-7.39453ZM75.6497-5.09766 73.9974-5.09766C73.4661-5.09766 73.0052-5.05273 72.6146-4.96289 72.224-4.87305 71.8997-4.74023 71.6419-4.56445 71.3841-4.38867 71.1947-4.17773 71.0736-3.93164 70.9525-3.68555 70.8919-3.40234 70.8919-3.08203 70.8919-2.53516 71.0658-2.09961 71.4134-1.77539 71.7611-1.45117 72.2474-1.28906 72.8724-1.28906 73.3802-1.28906 73.8509-1.41797 74.2845-1.67578 74.7181-1.93359 75.1732-2.32812 75.6497-2.85938ZM86.3907-1.06641C86.3907-0.839844 86.375-0.660156 86.3438-0.527344 86.3125-0.394531 86.2657-0.296875 86.2032-0.234375 86.1407-0.171875 86.0469-0.113281 85.9219-0.0585938 85.7969-0.00390625 85.6543 0.0410156 85.4942 0.0761719 85.334 0.111328 85.1641 0.140625 84.9844 0.164062 84.8047 0.1875 84.625 0.199219 84.4454 0.199219 83.8985 0.199219 83.4297 0.126953 83.0391-0.0175781 82.6485-0.162109 82.3282-0.380859 82.0782-0.673828 81.8282-0.966797 81.6465-1.33789 81.5333-1.78711 81.42-2.23633 81.3633-2.76562 81.3633-3.375L81.3633-9.53906 79.8868-9.53906C79.7696-9.53906 79.6758-9.60156 79.6055-9.72656 79.5352-9.85156 79.5001-10.0547 79.5001-10.3359 79.5001-10.4844 79.5098-10.6094 79.5294-10.7109 79.5489-10.8125 79.5743-10.8965 79.6055-10.9629 79.6368-11.0293 79.6778-11.0762 79.7286-11.1035 79.7794-11.1309 79.836-11.1445 79.8985-11.1445L81.3633-11.1445 81.3633-13.6523C81.3633-13.707 81.377-13.7578 81.4044-13.8047 81.4317-13.8516 81.4825-13.8926 81.5567-13.9277 81.6309-13.9629 81.7305-13.9883 81.8555-14.0039 81.9805-14.0195 82.1368-14.0273 82.3243-14.0273 82.5196-14.0273 82.6797-14.0195 82.8047-14.0039 82.9297-13.9883 83.0274-13.9629 83.0977-13.9277 83.168-13.8926 83.2188-13.8516 83.2501-13.8047 83.2813-13.7578 83.2969-13.707 83.2969-13.6523L83.2969-11.1445 86.004-11.1445C86.0665-11.1445 86.1211-11.1309 86.168-11.1035 86.2149-11.0762 86.2559-11.0293 86.2911-10.9629 86.3262-10.8965 86.3516-10.8125 86.3672-10.7109 86.3829-10.6094 86.3907-10.4844 86.3907-10.3359 86.3907-10.0547 86.3555-9.85156 86.2852-9.72656 86.2149-9.60156 86.1211-9.53906 86.004-9.53906L83.2969-9.53906 83.2969-3.65625C83.2969-2.92969 83.4043-2.38086 83.6192-2.00977 83.834-1.63867 84.2188-1.45312 84.7735-1.45312 84.9532-1.45312 85.1133-1.4707 85.254-1.50586 85.3946-1.54102 85.5196-1.57812 85.629-1.61719 85.7383-1.65625 85.8321-1.69336 85.9102-1.72852 85.9883-1.76367 86.0586-1.78125 86.1211-1.78125 86.1602-1.78125 86.1973-1.77148 86.2325-1.75195 86.2676-1.73242 86.295-1.69531 86.3145-1.64062 86.334-1.58594 86.3516-1.51172 86.3672-1.41797 86.3829-1.32422 86.3907-1.20703 86.3907-1.06641ZM97.6463-6.02344C97.6463-5.71875 97.5698-5.50195 97.4168-5.37305 97.2638-5.24414 97.0891-5.17969 96.8928-5.17969L89.9471-5.17969C89.9471-4.59375 90.006-4.06641 90.1237-3.59766 90.2414-3.12891 90.4377-2.72656 90.7125-2.39062 90.9872-2.05469 91.3445-1.79687 91.7841-1.61719 92.2237-1.4375 92.7615-1.34766 93.3973-1.34766 93.8998-1.34766 94.3473-1.38867 94.7398-1.4707 95.1323-1.55273 95.4718-1.64453 95.7584-1.74609 96.0449-1.84766 96.2805-1.93945 96.465-2.02148 96.6495-2.10352 96.7889-2.14453 96.8831-2.14453 96.938-2.14453 96.9871-2.13086 97.0302-2.10352 97.0734-2.07617 97.1067-2.03516 97.1303-1.98047 97.1539-1.92578 97.1715-1.84961 97.1833-1.75195 97.1951-1.6543 97.201-1.53516 97.201-1.39453 97.201-1.29297 97.1971-1.20508 97.1893-1.13086 97.1814-1.05664 97.1717-0.990234 97.16-0.931641 97.1482-0.873047 97.1287-0.820312 97.1014-0.773438 97.074-0.726562 97.0389-0.681641 96.9959-0.638672 96.9529-0.595703 96.826-0.525391 96.6151-0.427734 96.4041-0.330078 96.1307-0.234375 95.7947-0.140625 95.4588-0.046875 95.0701 0.0371094 94.6287 0.111328 94.1873 0.185547 93.7166 0.222656 93.2166 0.222656 92.3494 0.222656 91.5897 0.101562 90.9373-0.140625 90.285-0.382812 89.7361-0.742188 89.2908-1.21875 88.8455-1.69531 88.5096-2.29297 88.283-3.01172 88.0565-3.73047 87.9432-4.56641 87.9432-5.51953 87.9432-6.42578 88.0604-7.24023 88.2947-7.96289 88.5291-8.68555 88.867-9.29883 89.3084-9.80273 89.7498-10.3066 90.283-10.6934 90.908-10.9629 91.533-11.2324 92.2322-11.3672 93.0057-11.3672 93.8338-11.3672 94.5389-11.2344 95.1209-10.9688 95.7029-10.7031 96.1815-10.3457 96.5565-9.89648 96.9314-9.44727 97.2068-8.91992 97.3826-8.31445 97.5584-7.70898 97.6463-7.0625 97.6463-6.375ZM95.701-6.59766C95.7244-7.61328 95.4984-8.41016 95.0229-8.98828 94.5475-9.56641 93.842-9.85547 92.9066-9.85547 92.4271-9.85547 92.0066-9.76562 91.645-9.58594 91.2834-9.40625 90.9808-9.16797 90.7371-8.87109 90.4934-8.57422 90.3047-8.22852 90.1711-7.83398 90.0375-7.43945 89.9628-7.02734 89.9471-6.59766ZM107.267-3.16406C107.267-2.625 107.168-2.14453 106.969-1.72266 106.769-1.30078 106.486-0.945312 106.119-0.65625 105.752-0.367188 105.314-0.148437 104.806 0 104.299 0.148437 103.74 0.222656 103.131 0.222656 102.756 0.222656 102.398 0.193359 102.058 0.134766 101.719 0.0761719 101.414 0.00195312 101.144-0.0878906 100.875-0.177734 100.646-0.271484 100.459-0.369141 100.271-0.466797 100.135-0.554688 100.049-0.632812 99.9627-0.710938 99.9002-0.820312 99.8611-0.960938 99.8221-1.10156 99.8025-1.29297 99.8026-1.53516 99.8025-1.68359 99.8104-1.80859 99.826-1.91016 99.8416-2.01172 99.8611-2.09375 99.8846-2.15625 99.908-2.21875 99.9412-2.26367 99.9842-2.29102 100.027-2.31836 100.076-2.33203 100.131-2.33203 100.217-2.33203 100.344-2.2793 100.512-2.17383 100.679-2.06836 100.887-1.95312 101.133-1.82812 101.379-1.70312 101.67-1.58789 102.006-1.48242 102.342-1.37695 102.728-1.32422 103.166-1.32422 103.494-1.32422 103.791-1.35938 104.056-1.42969 104.322-1.5 104.553-1.60352 104.748-1.74023 104.943-1.87695 105.094-2.05078 105.199-2.26172 105.304-2.47266 105.357-2.72266 105.357-3.01172 105.357-3.30859 105.281-3.55859 105.129-3.76172 104.976-3.96484 104.775-4.14453 104.525-4.30078 104.275-4.45703 103.994-4.5957 103.681-4.7168 103.369-4.83789 103.047-4.96484 102.715-5.09766 102.383-5.23047 102.058-5.38086 101.742-5.54883 101.426-5.7168 101.142-5.92188 100.892-6.16406 100.642-6.40625 100.441-6.69531 100.289-7.03125 100.137-7.36719 100.06-7.76953 100.06-8.23828 100.06-8.65234 100.14-9.04883 100.301-9.42773 100.461-9.80664 100.701-10.1387 101.021-10.4238 101.342-10.709 101.742-10.9375 102.222-11.1094 102.703-11.2812 103.263-11.3672 103.904-11.3672 104.185-11.3672 104.467-11.3438 104.748-11.2969 105.029-11.25 105.283-11.1914 105.51-11.1211 105.736-11.0508 105.929-10.9746 106.09-10.8926 106.25-10.8105 106.371-10.7383 106.453-10.6758 106.535-10.6133 106.59-10.5586 106.617-10.5117 106.644-10.4648 106.664-10.4121 106.676-10.3535 106.687-10.2949 106.699-10.2227 106.711-10.1367 106.722-10.0508 106.728-9.94531 106.728-9.82031 106.728-9.6875 106.722-9.57227 106.711-9.47461 106.699-9.37695 106.679-9.29688 106.652-9.23438 106.625-9.17188 106.592-9.12695 106.553-9.09961 106.513-9.07227 106.471-9.05859 106.424-9.05859 106.353-9.05859 106.252-9.10156 106.119-9.1875 105.986-9.27344 105.814-9.36523 105.603-9.46289 105.392-9.56055 105.144-9.65234 104.859-9.73828 104.574-9.82422 104.248-9.86719 103.881-9.86719 103.553-9.86719 103.263-9.83008 103.013-9.75586 102.763-9.68164 102.558-9.57617 102.398-9.43945 102.238-9.30273 102.117-9.14062 102.035-8.95312 101.953-8.76562 101.912-8.5625 101.912-8.34375 101.912-8.03906 101.99-7.7832 102.146-7.57617 102.303-7.36914 102.506-7.1875 102.756-7.03125 103.006-6.875 103.291-6.73437 103.611-6.60938 103.931-6.48437 104.258-6.35547 104.59-6.22266 104.922-6.08984 105.25-5.94141 105.574-5.77734 105.898-5.61328 106.185-5.41406 106.435-5.17969 106.685-4.94531 106.887-4.66406 107.039-4.33594 107.191-4.00781 107.267-3.61719 107.267-3.16406ZM112.839-9.375C112.839-9.125 112.821-8.91406 112.786-8.74219 112.751-8.57031 112.685-8.43164 112.587-8.32617 112.489-8.2207 112.362-8.14648 112.206-8.10352 112.05-8.06055 111.851-8.03906 111.609-8.03906 111.359-8.03906 111.155-8.06055 110.999-8.10352 110.843-8.14648 110.718-8.2207 110.624-8.32617 110.53-8.43164 110.466-8.57031 110.431-8.74219 110.396-8.91406 110.378-9.125 110.378-9.375 110.378-9.64062 110.396-9.86133 110.431-10.0371 110.466-10.2129 110.53-10.3535 110.624-10.459 110.718-10.5645 110.843-10.6387 110.999-10.6816 111.155-10.7246 111.359-10.7461 111.609-10.7461 111.851-10.7461 112.05-10.7246 112.206-10.6816 112.362-10.6387 112.489-10.5645 112.587-10.459 112.685-10.3535 112.751-10.2129 112.786-10.0371 112.821-9.86133 112.839-9.64062 112.839-9.375ZM112.839-1.24219C112.839-0.984375 112.821-0.769531 112.786-0.597656 112.751-0.425781 112.685-0.287109 112.587-0.181641 112.489-0.0761719 112.362-0.00195312 112.206 0.0410156 112.05 0.0839844 111.851 0.105469 111.609 0.105469 111.359 0.105469 111.155 0.0839844 110.999 0.0410156 110.843-0.00195312 110.718-0.0761719 110.624-0.181641 110.53-0.287109 110.466-0.425781 110.431-0.597656 110.396-0.769531 110.378-0.984375 110.378-1.24219 110.378-1.5 110.396-1.7168 110.431-1.89258 110.466-2.06836 110.53-2.20703 110.624-2.30859 110.718-2.41016 110.843-2.48438 110.999-2.53125 111.155-2.57812 111.359-2.60156 111.609-2.60156 111.851-2.60156 112.05-2.57812 112.206-2.53125 112.362-2.48438 112.489-2.41016 112.587-2.30859 112.685-2.20703 112.751-2.06836 112.786-1.89258 112.821-1.7168 112.839-1.5 112.839-1.24219Z" fill="#FFFFFF" transform="translate(36.6528 36)"/><path d="M1.27734-8.41406C1.27734-9.23438 1.56836-9.93359 2.15039-10.5117 2.73242-11.0898 3.42969-11.3789 4.24219-11.3789 5.0625-11.3789 5.76367-11.0898 6.3457-10.5117 6.92773-9.93359 7.21875-9.23438 7.21875-8.41406 7.21875-7.59375 6.92773-6.89258 6.3457-6.31055 5.76367-5.72852 5.0625-5.4375 4.24219-5.4375 3.42969-5.4375 2.73242-5.72852 2.15039-6.31055 1.56836-6.89258 1.27734-7.59375 1.27734-8.41406Z" fill="#FFFFFF" transform="translate(57.7462 65)"/><path d="M10.1602-4.25391C10.1602-3.54297 10.0293-2.91016 9.76758-2.35547 9.50586-1.80078 9.14258-1.33008 8.67773-0.943359 8.21289-0.556641 7.66602-0.265625 7.03711-0.0703125 6.4082 0.125 5.73047 0.222656 5.00391 0.222656 4.49609 0.222656 4.02539 0.179687 3.5918 0.09375 3.1582 0.0078125 2.77148-0.0976562 2.43164-0.222656 2.0918-0.347656 1.80664-0.476562 1.57617-0.609375 1.3457-0.742187 1.18555-0.855469 1.0957-0.949219 1.00586-1.04297 0.939453-1.16211 0.896484-1.30664 0.853516-1.45117 0.832031-1.64453 0.832031-1.88672 0.832031-2.05859 0.839844-2.20117 0.855469-2.31445 0.871094-2.42773 0.894531-2.51953 0.925781-2.58984 0.957031-2.66016 0.996094-2.70898 1.04297-2.73633 1.08984-2.76367 1.14453-2.77734 1.20703-2.77734 1.31641-2.77734 1.4707-2.71094 1.66992-2.57812 1.86914-2.44531 2.125-2.30078 2.4375-2.14453 2.75-1.98828 3.12695-1.8418 3.56836-1.70508 4.00977-1.56836 4.51953-1.5 5.09766-1.5 5.53516-1.5 5.93555-1.55859 6.29883-1.67578 6.66211-1.79297 6.97461-1.95898 7.23633-2.17383 7.49805-2.38867 7.69922-2.65234 7.83984-2.96484 7.98047-3.27734 8.05078-3.63281 8.05078-4.03125 8.05078-4.46094 7.95312-4.82812 7.75781-5.13281 7.5625-5.4375 7.30469-5.70508 6.98438-5.93555 6.66406-6.16602 6.29883-6.37695 5.88867-6.56836 5.47852-6.75977 5.05859-6.95508 4.62891-7.1543 4.19922-7.35352 3.78125-7.57422 3.375-7.81641 2.96875-8.05859 2.60547-8.34375 2.28516-8.67188 1.96484-9 1.70508-9.38477 1.50586-9.82617 1.30664-10.2676 1.20703-10.7969 1.20703-11.4141 1.20703-12.0469 1.32227-12.6113 1.55273-13.1074 1.7832-13.6035 2.10352-14.0195 2.51367-14.3555 2.92383-14.6914 3.41211-14.9473 3.97852-15.123 4.54492-15.2988 5.15625-15.3867 5.8125-15.3867 6.14844-15.3867 6.48633-15.3574 6.82617-15.2988 7.16602-15.2402 7.48633-15.1621 7.78711-15.0645 8.08789-14.9668 8.35547-14.8574 8.58984-14.7363 8.82422-14.6152 8.97852-14.5176 9.05273-14.4434 9.12695-14.3691 9.17578-14.3105 9.19922-14.2676 9.22266-14.2246 9.24219-14.1699 9.25781-14.1035 9.27344-14.0371 9.28516-13.957 9.29297-13.8633 9.30078-13.7695 9.30469-13.6484 9.30469-13.5 9.30469-13.3594 9.29883-13.2344 9.28711-13.125 9.27539-13.0156 9.25781-12.9238 9.23438-12.8496 9.21094-12.7754 9.17773-12.7207 9.13477-12.6855 9.0918-12.6504 9.04297-12.6328 8.98828-12.6328 8.90234-12.6328 8.76758-12.6875 8.58398-12.7969 8.40039-12.9062 8.17578-13.0293 7.91016-13.166 7.64453-13.3027 7.33008-13.4277 6.9668-13.541 6.60352-13.6543 6.19531-13.7109 5.74219-13.7109 5.32031-13.7109 4.95312-13.6543 4.64062-13.541 4.32812-13.4277 4.07031-13.2773 3.86719-13.0898 3.66406-12.9023 3.51172-12.6797 3.41016-12.4219 3.30859-12.1641 3.25781-11.8906 3.25781-11.6016 3.25781-11.1797 3.35547-10.8164 3.55078-10.5117 3.74609-10.207 4.00586-9.9375 4.33008-9.70312 4.6543-9.46875 5.02344-9.25391 5.4375-9.05859 5.85156-8.86328 6.27344-8.66602 6.70312-8.4668 7.13281-8.26758 7.55469-8.04883 7.96875-7.81055 8.38281-7.57227 8.75195-7.29102 9.07617-6.9668 9.40039-6.64258 9.66211-6.25977 9.86133-5.81836 10.0605-5.37695 10.1602-4.85547 10.1602-4.25391ZM29.5039-0.304688C29.5039-0.242187 29.4878-0.1875 29.4557-0.140625 29.4235-0.09375 29.3672-0.0566406 29.2867-0.0292969 29.2061-0.00195313 29.1035 0.0214844 28.9789 0.0410156 28.8542 0.0605469 28.6912 0.0703125 28.4901 0.0703125 28.305 0.0703125 28.1461 0.0605469 28.0133 0.0410156 27.8806 0.0214844 27.776-0.00195313 27.6995-0.0292969 27.623-0.0566406 27.5687-0.09375 27.5365-0.140625 27.5044-0.1875 27.4883-0.242187 27.4883-0.304688L27.4883-13.5117 27.4648-13.5117 22.1211-0.246094C22.0977-0.191406 22.0645-0.144531 22.0215-0.105469 21.9785-0.0664062 21.916-0.0332031 21.834-0.00585938 21.752 0.0214844 21.6543 0.0410156 21.541 0.0527344 21.4277 0.0644531 21.293 0.0703125 21.1367 0.0703125 20.9727 0.0703125 20.832 0.0625 20.7148 0.046875 20.5977 0.03125 20.5 0.00976562 20.4219-0.0175781 20.3438-0.0449219 20.2832-0.078125 20.2402-0.117188 20.1973-0.15625 20.168-0.199219 20.1523-0.246094L15.043-13.5117 15.0312-13.5117 15.0312-0.304688C15.0312-0.242187 15.0152-0.1875 14.983-0.140625 14.9508-0.09375 14.8945-0.0566406 14.814-0.0292969 14.7335-0.00195313 14.6289 0.0214844 14.5002 0.0410156 14.3714 0.0605469 14.2065 0.0703125 14.0053 0.0703125 13.8122 0.0703125 13.6513 0.0605469 13.5226 0.0410156 13.3938 0.0214844 13.2912-0.00195313 13.2148-0.0292969 13.1383-0.0566406 13.086-0.09375 13.0578-0.140625 13.0297-0.1875 13.0156-0.242187 13.0156-0.304688L13.0156-14.25C13.0156-14.5781 13.1029-14.8125 13.2774-14.9531 13.4519-15.0937 13.6462-15.1641 13.8605-15.1641L15.0981-15.1641C15.3519-15.1641 15.574-15.1406 15.7644-15.0938 15.9548-15.0469 16.1214-14.9727 16.2642-14.8711 16.407-14.7695 16.5259-14.6406 16.6212-14.4844 16.7164-14.3281 16.7997-14.1445 16.8711-13.9336L21.207-2.95312 21.2656-2.95312 25.7773-13.8984C25.8646-14.1328 25.9599-14.332 26.0631-14.4961 26.1663-14.6602 26.2794-14.791 26.4025-14.8887 26.5255-14.9863 26.6624-15.0566 26.8132-15.0996 26.9639-15.1426 27.1385-15.1641 27.337-15.1641L28.6347-15.1641C28.7538-15.1641 28.867-15.1465 28.9741-15.1113 29.0812-15.0762 29.1725-15.0215 29.2479-14.9473 29.3234-14.873 29.3849-14.7793 29.4325-14.666 29.4801-14.5527 29.5039-14.4141 29.5039-14.25ZM41.6602-4.25391C41.6602-3.54297 41.5293-2.91016 41.2676-2.35547 41.0059-1.80078 40.6426-1.33008 40.1777-0.943359 39.7129-0.556641 39.166-0.265625 38.5371-0.0703125 37.9082 0.125 37.2305 0.222656 36.5039 0.222656 35.9961 0.222656 35.5254 0.179687 35.0918 0.09375 34.6582 0.0078125 34.2715-0.0976562 33.9316-0.222656 33.5918-0.347656 33.3066-0.476562 33.0762-0.609375 32.8457-0.742187 32.6855-0.855469 32.5957-0.949219 32.5059-1.04297 32.4395-1.16211 32.3965-1.30664 32.3535-1.45117 32.332-1.64453 32.332-1.88672 32.332-2.05859 32.3398-2.20117 32.3555-2.31445 32.3711-2.42773 32.3945-2.51953 32.4258-2.58984 32.457-2.66016 32.4961-2.70898 32.543-2.73633 32.5898-2.76367 32.6445-2.77734 32.707-2.77734 32.8164-2.77734 32.9707-2.71094 33.1699-2.57812 33.3691-2.44531 33.625-2.30078 33.9375-2.14453 34.25-1.98828 34.627-1.8418 35.0684-1.70508 35.5098-1.56836 36.0195-1.5 36.5977-1.5 37.0352-1.5 37.4355-1.55859 37.7988-1.67578 38.1621-1.79297 38.4746-1.95898 38.7363-2.17383 38.998-2.38867 39.1992-2.65234 39.3398-2.96484 39.4805-3.27734 39.5508-3.63281 39.5508-4.03125 39.5508-4.46094 39.4531-4.82812 39.2578-5.13281 39.0625-5.4375 38.8047-5.70508 38.4844-5.93555 38.1641-6.16602 37.7988-6.37695 37.3887-6.56836 36.9785-6.75977 36.5586-6.95508 36.1289-7.1543 35.6992-7.35352 35.2812-7.57422 34.875-7.81641 34.4688-8.05859 34.1055-8.34375 33.7852-8.67188 33.4648-9 33.2051-9.38477 33.0059-9.82617 32.8066-10.2676 32.707-10.7969 32.707-11.4141 32.707-12.0469 32.8223-12.6113 33.0527-13.1074 33.2832-13.6035 33.6035-14.0195 34.0137-14.3555 34.4238-14.6914 34.9121-14.9473 35.4785-15.123 36.0449-15.2988 36.6562-15.3867 37.3125-15.3867 37.6484-15.3867 37.9863-15.3574 38.3262-15.2988 38.666-15.2402 38.9863-15.1621 39.2871-15.0645 39.5879-14.9668 39.8555-14.8574 40.0898-14.7363 40.3242-14.6152 40.4785-14.5176 40.5527-14.4434 40.627-14.3691 40.6758-14.3105 40.6992-14.2676 40.7227-14.2246 40.7422-14.1699 40.7578-14.1035 40.7734-14.0371 40.7852-13.957 40.793-13.8633 40.8008-13.7695 40.8047-13.6484 40.8047-13.5 40.8047-13.3594 40.7988-13.2344 40.7871-13.125 40.7754-13.0156 40.7578-12.9238 40.7344-12.8496 40.7109-12.7754 40.6777-12.7207 40.6348-12.6855 40.5918-12.6504 40.543-12.6328 40.4883-12.6328 40.4023-12.6328 40.2676-12.6875 40.084-12.7969 39.9004-12.9062 39.6758-13.0293 39.4102-13.166 39.1445-13.3027 38.8301-13.4277 38.4668-13.541 38.1035-13.6543 37.6953-13.7109 37.2422-13.7109 36.8203-13.7109 36.4531-13.6543 36.1406-13.541 35.8281-13.4277 35.5703-13.2773 35.3672-13.0898 35.1641-12.9023 35.0117-12.6797 34.9102-12.4219 34.8086-12.1641 34.7578-11.8906 34.7578-11.6016 34.7578-11.1797 34.8555-10.8164 35.0508-10.5117 35.2461-10.207 35.5059-9.9375 35.8301-9.70312 36.1543-9.46875 36.5234-9.25391 36.9375-9.05859 37.3516-8.86328 37.7734-8.66602 38.2031-8.4668 38.6328-8.26758 39.0547-8.04883 39.4688-7.81055 39.8828-7.57227 40.252-7.29102 40.5762-6.9668 40.9004-6.64258 41.1621-6.25977 41.3613-5.81836 41.5605-5.37695 41.6602-4.85547 41.6602-4.25391Z" fill="#FFFFFF" transform="translate(87.7462 65)"/><path d="M1.27734-8.41406C1.27734-9.23438 1.56836-9.93359 2.15039-10.5117 2.73242-11.0898 3.42969-11.3789 4.24219-11.3789 5.0625-11.3789 5.76367-11.0898 6.3457-10.5117 6.92773-9.93359 7.21875-9.23438 7.21875-8.41406 7.21875-7.59375 6.92773-6.89258 6.3457-6.31055 5.76367-5.72852 5.0625-5.4375 4.24219-5.4375 3.42969-5.4375 2.73242-5.72852 2.15039-6.31055 1.56836-6.89258 1.27734-7.59375 1.27734-8.41406Z" fill="#FFFFFF" transform="translate(53.9128 94)"/><path d="M11.5195-14.2969C11.5195-14.1484 11.5117-14.0195 11.4961-13.9102 11.4805-13.8008 11.4551-13.7129 11.4199-13.6465 11.3848-13.5801 11.3418-13.5312 11.291-13.5 11.2402-13.4687 11.1836-13.4531 11.1211-13.4531L6.85547-13.4531 6.85547-0.304688C6.85547-0.242187 6.83984-0.1875 6.80859-0.140625 6.77734-0.09375 6.72266-0.0566406 6.64453-0.0292969 6.56641-0.00195313 6.46289 0.0214844 6.33398 0.0410156 6.20508 0.0605469 6.04297 0.0703125 5.84766 0.0703125 5.66016 0.0703125 5.5 0.0605469 5.36719 0.0410156 5.23438 0.0214844 5.12891-0.00195313 5.05078-0.0292969 4.97266-0.0566406 4.91797-0.09375 4.88672-0.140625 4.85547-0.1875 4.83984-0.242187 4.83984-0.304688L4.83984-13.4531 0.574219-13.4531C0.511719-13.4531 0.455078-13.4687 0.404297-13.5 0.353516-13.5312 0.3125-13.5801 0.28125-13.6465 0.25-13.7129 0.224609-13.8008 0.205078-13.9102 0.185547-14.0195 0.175781-14.1484 0.175781-14.2969 0.175781-14.4453 0.185547-14.5762 0.205078-14.6895 0.224609-14.8027 0.25-14.8945 0.28125-14.9648 0.3125-15.0352 0.353516-15.0859 0.404297-15.1172 0.455078-15.1484 0.511719-15.1641 0.574219-15.1641L11.1211-15.1641C11.1836-15.1641 11.2402-15.1484 11.291-15.1172 11.3418-15.0859 11.3848-15.0352 11.4199-14.9648 11.4551-14.8945 11.4805-14.8027 11.4961-14.6895 11.5117-14.5762 11.5195-14.4453 11.5195-14.2969ZM25.7054-7.75781C25.7054-6.53125 25.5609-5.42578 25.2718-4.44141 24.9828-3.45703 24.5511-2.61914 23.9769-1.92773 23.4027-1.23633 22.682-0.705078 21.8148-0.333984 20.9476 0.0371094 19.9359 0.222656 18.7796 0.222656 17.639 0.222656 16.6527 0.0527344 15.8207-0.287109 14.9886-0.626953 14.3011-1.12109 13.7582-1.76953 13.2152-2.41797 12.8109-3.22266 12.5453-4.18359 12.2796-5.14453 12.1468-6.25 12.1468-7.5 12.1468-8.69531 12.2914-9.78125 12.5804-10.7578 12.8695-11.7344 13.3031-12.5645 13.8812-13.248 14.4593-13.9316 15.182-14.459 16.0492-14.8301 16.9164-15.2012 17.9281-15.3867 19.0843-15.3867 20.2015-15.3867 21.1742-15.2187 22.0023-14.8828 22.8304-14.5469 23.5199-14.0566 24.0707-13.4121 24.6214-12.7676 25.0316-11.9707 25.3011-11.0215 25.5707-10.0723 25.7054-8.98438 25.7054-7.75781ZM23.5726-7.61719C23.5726-8.47656 23.4965-9.27539 23.3444-10.0137 23.1922-10.752 22.9386-11.3926 22.5836-11.9355 22.2285-12.4785 21.7545-12.9023 21.1616-13.207 20.5686-13.5117 19.8352-13.6641 18.9613-13.6641 18.0874-13.6641 17.3539-13.5 16.7609-13.1719 16.1679-12.8437 15.6861-12.4062 15.3155-11.8594 14.9449-11.3125 14.6796-10.6738 14.5196-9.94336 14.3596-9.21289 14.2796-8.44531 14.2796-7.64062 14.2796-6.75 14.3538-5.92969 14.502-5.17969 14.6503-4.42969 14.9-3.7832 15.2511-3.24023 15.6022-2.69727 16.0724-2.27539 16.6615-1.97461 17.2506-1.67383 17.9898-1.52344 18.8792-1.52344 19.761-1.52344 20.5022-1.6875 21.1031-2.01562 21.7039-2.34375 22.1877-2.78711 22.5544-3.3457 22.9211-3.9043 23.1824-4.55078 23.3385-5.28516 23.4946-6.01953 23.5726-6.79687 23.5726-7.61719ZM37.6929-14.2969C37.6929-14.1484 37.6851-14.0195 37.6694-13.9102 37.6538-13.8008 37.6284-13.7129 37.5933-13.6465 37.5581-13.5801 37.5151-13.5312 37.4643-13.5 37.4136-13.4687 37.3569-13.4531 37.2944-13.4531L33.0288-13.4531 33.0288-0.304688C33.0288-0.242187 33.0132-0.1875 32.9819-0.140625 32.9507-0.09375 32.896-0.0566406 32.8179-0.0292969 32.7397-0.00195313 32.6362 0.0214844 32.5073 0.0410156 32.3784 0.0605469 32.2163 0.0703125 32.021 0.0703125 31.8335 0.0703125 31.6733 0.0605469 31.5405 0.0410156 31.4077 0.0214844 31.3022-0.00195313 31.2241-0.0292969 31.146-0.0566406 31.0913-0.09375 31.0601-0.140625 31.0288-0.1875 31.0132-0.242187 31.0132-0.304688L31.0132-13.4531 26.7476-13.4531C26.6851-13.4531 26.6284-13.4687 26.5776-13.5 26.5268-13.5312 26.4858-13.5801 26.4546-13.6465 26.4233-13.7129 26.3979-13.8008 26.3784-13.9102 26.3589-14.0195 26.3491-14.1484 26.3491-14.2969 26.3491-14.4453 26.3589-14.5762 26.3784-14.6895 26.3979-14.8027 26.4233-14.8945 26.4546-14.9648 26.4858-15.0352 26.5268-15.0859 26.5776-15.1172 26.6284-15.1484 26.6851-15.1641 26.7476-15.1641L37.2944-15.1641C37.3569-15.1641 37.4136-15.1484 37.4643-15.1172 37.5151-15.0859 37.5581-15.0352 37.5933-14.9648 37.6284-14.8945 37.6538-14.8027 37.6694-14.6895 37.6851-14.5762 37.6929-14.4453 37.6929-14.2969ZM49.172-10.7227C49.172-9.96484 49.047-9.28125 48.797-8.67188 48.547-8.0625 48.1896-7.54297 47.7248-7.11328 47.2599-6.68359 46.6896-6.35156 46.0138-6.11719 45.338-5.88281 44.5314-5.76562 43.5939-5.76562L41.8713-5.76562 41.8713-0.304688C41.8713-0.242187 41.8537-0.1875 41.8185-0.140625 41.7834-0.09375 41.7287-0.0566406 41.6545-0.0292969 41.5802-0.00195313 41.4787 0.0214844 41.3498 0.0410156 41.2209 0.0605469 41.0588 0.0703125 40.8634 0.0703125 40.6681 0.0703125 40.506 0.0605469 40.3771 0.0410156 40.2482 0.0214844 40.1447-0.00195313 40.0666-0.0292969 39.9884-0.0566406 39.9338-0.09375 39.9025-0.140625 39.8713-0.1875 39.8556-0.242187 39.8556-0.304688L39.8556-14.2969C39.8556-14.6094 39.9377-14.832 40.1017-14.9648 40.2658-15.0977 40.4494-15.1641 40.6525-15.1641L43.8986-15.1641C44.2267-15.1641 44.5412-15.1504 44.842-15.123 45.1427-15.0957 45.4982-15.0371 45.9084-14.9473 46.3185-14.8574 46.7365-14.6895 47.1623-14.4434 47.588-14.1973 47.9494-13.8945 48.2463-13.5352 48.5431-13.1758 48.7716-12.7598 48.9318-12.2871 49.092-11.8145 49.172-11.293 49.172-10.7227ZM47.0509-10.5586C47.0509-11.1758 46.9357-11.6914 46.7052-12.1055 46.4748-12.5195 46.1896-12.8281 45.8498-13.0312 45.5099-13.2344 45.1584-13.3633 44.7951-13.418 44.4318-13.4727 44.0783-13.5 43.7345-13.5L41.8713-13.5 41.8713-7.41797 43.6877-7.41797C44.297-7.41797 44.8029-7.49609 45.2052-7.65234 45.6076-7.80859 45.9455-8.02539 46.2189-8.30273 46.4923-8.58008 46.6994-8.91211 46.84-9.29883 46.9806-9.68555 47.0509-10.1055 47.0509-10.5586Z" fill="#FFFFFF" transform="translate(83.9128 94)"/><path d="M1.27734-8.41406C1.27734-9.23438 1.56836-9.93359 2.15039-10.5117 2.73242-11.0898 3.42969-11.3789 4.24219-11.3789 5.0625-11.3789 5.76367-11.0898 6.3457-10.5117 6.92773-9.93359 7.21875-9.23438 7.21875-8.41406 7.21875-7.59375 6.92773-6.89258 6.3457-6.31055 5.76367-5.72852 5.0625-5.4375 4.24219-5.4375 3.42969-5.4375 2.73242-5.72852 2.15039-6.31055 1.56836-6.89258 1.27734-7.59375 1.27734-8.41406Z" fill="#FFFFFF" transform="translate(20.3929 123)"/><path d="M11.332-10.7227C11.332-9.96484 11.207-9.28125 10.957-8.67188 10.707-8.0625 10.3496-7.54297 9.88477-7.11328 9.41992-6.68359 8.84961-6.35156 8.17383-6.11719 7.49805-5.88281 6.69141-5.76562 5.75391-5.76562L4.03125-5.76562 4.03125-0.304688C4.03125-0.242187 4.01367-0.1875 3.97852-0.140625 3.94336-0.09375 3.88867-0.0566406 3.81445-0.0292969 3.74023-0.00195313 3.63867 0.0214844 3.50977 0.0410156 3.38086 0.0605469 3.21875 0.0703125 3.02344 0.0703125 2.82812 0.0703125 2.66602 0.0605469 2.53711 0.0410156 2.4082 0.0214844 2.30469-0.00195313 2.22656-0.0292969 2.14844-0.0566406 2.09375-0.09375 2.0625-0.140625 2.03125-0.1875 2.01562-0.242187 2.01562-0.304688L2.01562-14.2969C2.01562-14.6094 2.09766-14.832 2.26172-14.9648 2.42578-15.0977 2.60938-15.1641 2.8125-15.1641L6.05859-15.1641C6.38672-15.1641 6.70117-15.1504 7.00195-15.123 7.30273-15.0957 7.6582-15.0371 8.06836-14.9473 8.47852-14.8574 8.89648-14.6895 9.32227-14.4434 9.74805-14.1973 10.1094-13.8945 10.4062-13.5352 10.7031-13.1758 10.9316-12.7598 11.0918-12.2871 11.252-11.8145 11.332-11.293 11.332-10.7227ZM9.21094-10.5586C9.21094-11.1758 9.0957-11.6914 8.86523-12.1055 8.63477-12.5195 8.34961-12.8281 8.00977-13.0312 7.66992-13.2344 7.31836-13.3633 6.95508-13.418 6.5918-13.4727 6.23828-13.5 5.89453-13.5L4.03125-13.5 4.03125-7.41797 5.84766-7.41797C6.45703-7.41797 6.96289-7.49609 7.36523-7.65234 7.76758-7.80859 8.10547-8.02539 8.37891-8.30273 8.65234-8.58008 8.85938-8.91211 9-9.29883 9.14062-9.68555 9.21094-10.1055 9.21094-10.5586ZM23.2083-0.292969C23.2083-0.230469 23.1927-0.177734 23.1615-0.134766 23.1302-0.0917969 23.0794-0.0546875 23.0091-0.0234375 22.9388 0.0078125 22.8411 0.03125 22.7161 0.046875 22.5911 0.0625 22.4349 0.0703125 22.2474 0.0703125 22.0521 0.0703125 21.8919 0.0625 21.7669 0.046875 21.6419 0.03125 21.5443 0.0078125 21.474-0.0234375 21.4036-0.0546875 21.3529-0.0917969 21.3216-0.134766 21.2904-0.177734 21.2747-0.230469 21.2747-0.292969L21.2747-6.46875C21.2747-7.07031 21.2279-7.55469 21.1341-7.92188 21.0404-8.28906 20.9036-8.60547 20.724-8.87109 20.5443-9.13672 20.3118-9.33984 20.0267-9.48047 19.7415-9.62109 19.4115-9.69141 19.0365-9.69141 18.5521-9.69141 18.0677-9.51953 17.5833-9.17578 17.099-8.83203 16.5911-8.32812 16.0599-7.66406L16.0599-0.292969C16.0599-0.230469 16.0443-0.177734 16.013-0.134766 15.9818-0.0917969 15.931-0.0546875 15.8607-0.0234375 15.7904 0.0078125 15.6927 0.03125 15.5677 0.046875 15.4427 0.0625 15.2826 0.0703125 15.0872 0.0703125 14.8997 0.0703125 14.7435 0.0625 14.6185 0.046875 14.4935 0.03125 14.3939 0.0078125 14.3197-0.0234375 14.2454-0.0546875 14.1947-0.0917969 14.1673-0.134766 14.14-0.177734 14.1263-0.230469 14.1263-0.292969L14.1263-15.9492C14.1263-16.0117 14.14-16.0664 14.1673-16.1133 14.1947-16.1602 14.2454-16.1992 14.3197-16.2305 14.3939-16.2617 14.4935-16.2852 14.6185-16.3008 14.7435-16.3164 14.8997-16.3242 15.0872-16.3242 15.2826-16.3242 15.4427-16.3164 15.5677-16.3008 15.6927-16.2852 15.7904-16.2617 15.8607-16.2305 15.931-16.1992 15.9818-16.1602 16.013-16.1133 16.0443-16.0664 16.0599-16.0117 16.0599-15.9492L16.0599-9.63281C16.6146-10.2188 17.1732-10.6543 17.7357-10.9395 18.2982-11.2246 18.8646-11.3672 19.4349-11.3672 20.138-11.3672 20.7298-11.248 21.2103-11.0098 21.6908-10.7715 22.0794-10.4531 22.3763-10.0547 22.6732-9.65625 22.8861-9.18945 23.015-8.6543 23.1439-8.11914 23.2083-7.47266 23.2083-6.71484ZM31.151 0 29.7447 3.87891C29.6979 4.00391 29.5787 4.09961 29.3873 4.16602 29.1959 4.23242 28.9049 4.26562 28.5143 4.26562 28.3111 4.26562 28.1471 4.25586 28.0221 4.23633 27.8971 4.2168 27.8014 4.18359 27.735 4.13672 27.6686 4.08984 27.6315 4.02734 27.6236 3.94922 27.6158 3.87109 27.6354 3.77734 27.6822 3.66797L29.1354 0C29.0651-0.03125 28.9986-0.0820312 28.9361-0.152344 28.8736-0.222656 28.8307-0.296875 28.8072-0.375L25.0455-10.4531C24.983-10.6172 24.9518-10.7461 24.9518-10.8398 24.9518-10.9336 24.983-11.0078 25.0455-11.0625 25.108-11.1172 25.2096-11.1543 25.3502-11.1738 25.4908-11.1934 25.6783-11.2031 25.9127-11.2031 26.1471-11.2031 26.3307-11.1973 26.4635-11.1855 26.5963-11.1738 26.7018-11.1523 26.7799-11.1211 26.858-11.0898 26.9147-11.0449 26.9498-10.9863 26.985-10.9277 27.0221-10.8477 27.0611-10.7461L30.0729-2.28516 30.108-2.28516 33.0143-10.793C33.0611-10.9414 33.1178-11.0371 33.1842-11.0801 33.2506-11.123 33.3502-11.1543 33.483-11.1738 33.6158-11.1934 33.8072-11.2031 34.0572-11.2031 34.276-11.2031 34.4557-11.1934 34.5963-11.1738 34.7369-11.1543 34.8404-11.1172 34.9068-11.0625 34.9733-11.0078 35.0065-10.9336 35.0065-10.8398 35.0065-10.7461 34.983-10.6289 34.9361-10.4883ZM43.5807-3.16406C43.5807-2.625 43.4811-2.14453 43.2819-1.72266 43.0827-1.30078 42.7995-0.945312 42.4323-0.65625 42.0651-0.367188 41.6276-0.148437 41.1198 0 40.612 0.148437 40.0534 0.222656 39.444 0.222656 39.069 0.222656 38.7116 0.193359 38.3717 0.134766 38.0319 0.0761719 37.7272 0.00195312 37.4577-0.0878906 37.1882-0.177734 36.9596-0.271484 36.7721-0.369141 36.5846-0.466797 36.4479-0.554688 36.362-0.632812 36.276-0.710938 36.2135-0.820312 36.1745-0.960938 36.1354-1.10156 36.1159-1.29297 36.1159-1.53516 36.1159-1.68359 36.1237-1.80859 36.1393-1.91016 36.1549-2.01172 36.1745-2.09375 36.1979-2.15625 36.2214-2.21875 36.2546-2.26367 36.2975-2.29102 36.3405-2.31836 36.3893-2.33203 36.444-2.33203 36.5299-2.33203 36.6569-2.2793 36.8249-2.17383 36.9928-2.06836 37.1999-1.95312 37.446-1.82812 37.6921-1.70312 37.9831-1.58789 38.319-1.48242 38.6549-1.37695 39.0417-1.32422 39.4792-1.32422 39.8073-1.32422 40.1042-1.35938 40.3698-1.42969 40.6354-1.5 40.8659-1.60352 41.0612-1.74023 41.2565-1.87695 41.4069-2.05078 41.5124-2.26172 41.6178-2.47266 41.6706-2.72266 41.6706-3.01172 41.6706-3.30859 41.5944-3.55859 41.4421-3.76172 41.2897-3.96484 41.0885-4.14453 40.8385-4.30078 40.5885-4.45703 40.3073-4.5957 39.9948-4.7168 39.6823-4.83789 39.36-4.96484 39.028-5.09766 38.696-5.23047 38.3717-5.38086 38.0553-5.54883 37.7389-5.7168 37.4557-5.92188 37.2057-6.16406 36.9557-6.40625 36.7546-6.69531 36.6022-7.03125 36.4499-7.36719 36.3737-7.76953 36.3737-8.23828 36.3737-8.65234 36.4538-9.04883 36.6139-9.42773 36.7741-9.80664 37.0143-10.1387 37.3346-10.4238 37.6549-10.709 38.0553-10.9375 38.5358-11.1094 39.0163-11.2812 39.5768-11.3672 40.2174-11.3672 40.4987-11.3672 40.7799-11.3438 41.0612-11.2969 41.3424-11.25 41.5964-11.1914 41.8229-11.1211 42.0495-11.0508 42.2428-10.9746 42.403-10.8926 42.5631-10.8105 42.6842-10.7383 42.7663-10.6758 42.8483-10.6133 42.903-10.5586 42.9303-10.5117 42.9577-10.4648 42.9772-10.4121 42.9889-10.3535 43.0006-10.2949 43.0124-10.2227 43.0241-10.1367 43.0358-10.0508 43.0417-9.94531 43.0417-9.82031 43.0417-9.6875 43.0358-9.57227 43.0241-9.47461 43.0124-9.37695 42.9928-9.29688 42.9655-9.23438 42.9381-9.17188 42.9049-9.12695 42.8659-9.09961 42.8268-9.07227 42.7839-9.05859 42.737-9.05859 42.6667-9.05859 42.5651-9.10156 42.4323-9.1875 42.2995-9.27344 42.1276-9.36523 41.9167-9.46289 41.7057-9.56055 41.4577-9.65234 41.1725-9.73828 40.8874-9.82422 40.5612-9.86719 40.194-9.86719 39.8659-9.86719 39.5768-9.83008 39.3268-9.75586 39.0768-9.68164 38.8717-9.57617 38.7116-9.43945 38.5514-9.30273 38.4303-9.14062 38.3483-8.95312 38.2663-8.76562 38.2253-8.5625 38.2253-8.34375 38.2253-8.03906 38.3034-7.7832 38.4596-7.57617 38.6159-7.36914 38.819-7.1875 39.069-7.03125 39.319-6.875 39.6042-6.73437 39.9245-6.60938 40.2448-6.48437 40.571-6.35547 40.903-6.22266 41.235-6.08984 41.5631-5.94141 41.8874-5.77734 42.2116-5.61328 42.4987-5.41406 42.7487-5.17969 42.9987-4.94531 43.1999-4.66406 43.3522-4.33594 43.5046-4.00781 43.5807-3.61719 43.5807-3.16406ZM48.2266-0.292969C48.2266-0.230469 48.2109-0.177734 48.1797-0.134766 48.1484-0.0917969 48.0977-0.0546875 48.0273-0.0234375 47.957 0.0078125 47.8594 0.03125 47.7344 0.046875 47.6094 0.0625 47.4492 0.0703125 47.2539 0.0703125 47.0664 0.0703125 46.9102 0.0625 46.7852 0.046875 46.6602 0.03125 46.5605 0.0078125 46.4863-0.0234375 46.4121-0.0546875 46.3613-0.0917969 46.334-0.134766 46.3066-0.177734 46.293-0.230469 46.293-0.292969L46.293-10.8398C46.293-10.8945 46.3066-10.9453 46.334-10.9922 46.3613-11.0391 46.4121-11.0781 46.4863-11.1094 46.5605-11.1406 46.6602-11.1641 46.7852-11.1797 46.9102-11.1953 47.0664-11.2031 47.2539-11.2031 47.4492-11.2031 47.6094-11.1953 47.7344-11.1797 47.8594-11.1641 47.957-11.1406 48.0273-11.1094 48.0977-11.0781 48.1484-11.0391 48.1797-10.9922 48.2109-10.9453 48.2266-10.8945 48.2266-10.8398ZM48.4492-14.4023C48.4492-13.9492 48.3633-13.6406 48.1914-13.4766 48.0195-13.3125 47.7031-13.2305 47.2422-13.2305 46.7891-13.2305 46.4785-13.3105 46.3105-13.4707 46.1426-13.6309 46.0586-13.9336 46.0586-14.3789 46.0586-14.832 46.1445-15.1406 46.3164-15.3047 46.4883-15.4687 46.8047-15.5508 47.2656-15.5508 47.7188-15.5508 48.0293-15.4707 48.1973-15.3105 48.3652-15.1504 48.4492-14.8477 48.4492-14.4023ZM59.375-1.89844C59.375-1.76562 59.3711-1.65039 59.3633-1.55273 59.3555-1.45508 59.3418-1.37305 59.3223-1.30664 59.3027-1.24023 59.2793-1.18164 59.252-1.13086 59.2246-1.08008 59.1621-1.00586 59.0645-0.908203 58.9668-0.810547 58.8008-0.689453 58.5664-0.544922 58.332-0.400391 58.0684-0.271484 57.7754-0.158203 57.4824-0.0449219 57.1641 0.046875 56.8203 0.117188 56.4766 0.1875 56.1211 0.222656 55.7539 0.222656 54.9961 0.222656 54.3242 0.0976562 53.7383-0.152344 53.1523-0.402344 52.6621-0.767578 52.2676-1.24805 51.873-1.72852 51.5723-2.31836 51.3652-3.01758 51.1582-3.7168 51.0547-4.52344 51.0547-5.4375 51.0547-6.47656 51.1816-7.36914 51.4355-8.11523 51.6895-8.86133 52.0371-9.47266 52.4785-9.94922 52.9199-10.4258 53.4395-10.7793 54.0371-11.0098 54.6348-11.2402 55.2812-11.3555 55.9766-11.3555 56.3125-11.3555 56.6387-11.3242 56.9551-11.2617 57.2715-11.1992 57.5625-11.1172 57.8281-11.0156 58.0938-10.9141 58.3301-10.7969 58.5371-10.6641 58.7441-10.5312 58.8945-10.418 58.9883-10.3242 59.082-10.2305 59.1465-10.1562 59.1816-10.1016 59.2168-10.0469 59.2461-9.98242 59.2695-9.9082 59.293-9.83398 59.3086-9.75 59.3164-9.65625 59.3242-9.5625 59.3281-9.44531 59.3281-9.30469 59.3281-9 59.293-8.78711 59.2227-8.66602 59.1523-8.54492 59.0664-8.48438 58.9648-8.48438 58.8477-8.48438 58.7129-8.54883 58.5605-8.67773 58.4082-8.80664 58.2148-8.94922 57.9805-9.10547 57.7461-9.26172 57.4629-9.4043 57.1309-9.5332 56.7988-9.66211 56.4062-9.72656 55.9531-9.72656 55.0234-9.72656 54.3105-9.36914 53.8145-8.6543 53.3184-7.93945 53.0703-6.90234 53.0703-5.54297 53.0703-4.86328 53.1348-4.26758 53.2637-3.75586 53.3926-3.24414 53.582-2.81641 53.832-2.47266 54.082-2.12891 54.3887-1.87305 54.752-1.70508 55.1152-1.53711 55.5312-1.45312 56-1.45312 56.4453-1.45312 56.8359-1.52344 57.1719-1.66406 57.5078-1.80469 57.7988-1.95898 58.0449-2.12695 58.291-2.29492 58.498-2.44727 58.666-2.58398 58.834-2.7207 58.9648-2.78906 59.0586-2.78906 59.1133-2.78906 59.1602-2.77344 59.1992-2.74219 59.2383-2.71094 59.2715-2.6582 59.2988-2.58398 59.3262-2.50977 59.3457-2.41602 59.3574-2.30273 59.3691-2.18945 59.375-2.05469 59.375-1.89844ZM69.7049-0.28125C69.7049-0.1875 69.6737-0.117187 69.6112-0.0703125 69.5487-0.0234375 69.4628 0.0117188 69.3534 0.0351562 69.244 0.0585937 69.0839 0.0703125 68.8729 0.0703125 68.6698 0.0703125 68.5077 0.0585937 68.3866 0.0351562 68.2655 0.0117188 68.1776-0.0234375 68.1229-0.0703125 68.0682-0.117187 68.0409-0.1875 68.0409-0.28125L68.0409-1.33594C67.5799-0.84375 67.0663-0.460937 66.4999-0.1875 65.9335 0.0859375 65.3339 0.222656 64.701 0.222656 64.1464 0.222656 63.6444 0.150391 63.1952 0.00585938 62.746-0.138672 62.3632-0.347656 62.0467-0.621094 61.7303-0.894531 61.4842-1.23047 61.3085-1.62891 61.1327-2.02734 61.0448-2.48047 61.0448-2.98828 61.0448-3.58203 61.1659-4.09766 61.4081-4.53516 61.6503-4.97266 61.9979-5.33594 62.451-5.625 62.9042-5.91406 63.4589-6.13086 64.1151-6.27539 64.7714-6.41992 65.5096-6.49219 66.3299-6.49219L67.7831-6.49219 67.7831-7.3125C67.7831-7.71875 67.7401-8.07812 67.6542-8.39062 67.5682-8.70312 67.4296-8.96289 67.2382-9.16992 67.0467-9.37695 66.7987-9.5332 66.494-9.63867 66.1893-9.74414 65.8143-9.79688 65.369-9.79688 64.8924-9.79688 64.4647-9.74023 64.0858-9.62695 63.7069-9.51367 63.3749-9.38867 63.0897-9.25195 62.8046-9.11523 62.5663-8.99023 62.3749-8.87695 62.1835-8.76367 62.0409-8.70703 61.9471-8.70703 61.8846-8.70703 61.8299-8.72266 61.7831-8.75391 61.7362-8.78516 61.6952-8.83203 61.66-8.89453 61.6249-8.95703 61.5995-9.03711 61.5839-9.13477 61.5682-9.23242 61.5604-9.33984 61.5604-9.45703 61.5604-9.65234 61.5741-9.80664 61.6014-9.91992 61.6288-10.0332 61.6952-10.1406 61.8007-10.2422 61.9061-10.3438 62.0878-10.4629 62.3456-10.5996 62.6034-10.7363 62.9003-10.8613 63.2362-10.9746 63.5721-11.0879 63.9393-11.1816 64.3378-11.2559 64.7362-11.3301 65.1385-11.3672 65.5448-11.3672 66.3026-11.3672 66.9471-11.2812 67.4784-11.1094 68.0096-10.9375 68.4393-10.6855 68.7674-10.3535 69.0956-10.0215 69.3339-9.60938 69.4823-9.11719 69.6307-8.625 69.7049-8.05078 69.7049-7.39453ZM67.7831-5.09766 66.1307-5.09766C65.5995-5.09766 65.1385-5.05273 64.7479-4.96289 64.3573-4.87305 64.0331-4.74023 63.7753-4.56445 63.5174-4.38867 63.328-4.17773 63.2069-3.93164 63.0858-3.68555 63.0253-3.40234 63.0253-3.08203 63.0253-2.53516 63.1991-2.09961 63.5467-1.77539 63.8944-1.45117 64.3807-1.28906 65.0057-1.28906 65.5135-1.28906 65.9842-1.41797 66.4178-1.67578 66.8514-1.93359 67.3065-2.32812 67.7831-2.85938ZM75.1932-0.292969C75.1932-0.230469 75.1776-0.177734 75.1464-0.134766 75.1151-0.0917969 75.0643-0.0546875 74.994-0.0234375 74.9237 0.0078125 74.826 0.03125 74.701 0.046875 74.576 0.0625 74.4159 0.0703125 74.2206 0.0703125 74.0331 0.0703125 73.8768 0.0625 73.7518 0.046875 73.6268 0.03125 73.5272 0.0078125 73.453-0.0234375 73.3788-0.0546875 73.328-0.0917969 73.3007-0.134766 73.2733-0.177734 73.2596-0.230469 73.2596-0.292969L73.2596-15.9492C73.2596-16.0117 73.2733-16.0664 73.3007-16.1133 73.328-16.1602 73.3788-16.1992 73.453-16.2305 73.5272-16.2617 73.6268-16.2852 73.7518-16.3008 73.8768-16.3164 74.0331-16.3242 74.2206-16.3242 74.4159-16.3242 74.576-16.3164 74.701-16.3008 74.826-16.2852 74.9237-16.2617 74.994-16.2305 75.0643-16.1992 75.1151-16.1602 75.1464-16.1133 75.1776-16.0664 75.1932-16.0117 75.1932-15.9492Z" fill="#FFFFFF" transform="translate(50.3929 123)"/><path d="M11.9062-0.328125C11.9062-0.265625 11.8926-0.208984 11.8652-0.158203 11.8379-0.107422 11.7852-0.0664062 11.707-0.0351562 11.6289-0.00390625 11.5234 0.0214844 11.3906 0.0410156 11.2578 0.0605469 11.0859 0.0703125 10.875 0.0703125 10.6016 0.0703125 10.3789 0.0585937 10.207 0.0351562 10.0352 0.0117188 9.90625-0.03125 9.82031-0.09375 9.73438-0.15625 9.66406-0.226562 9.60938-0.304688L4.03125-7.88672 4.03125-0.304688C4.03125-0.25 4.01562-0.197266 3.98438-0.146484 3.95312-0.0957031 3.89844-0.0566406 3.82031-0.0292969 3.74219-0.00195313 3.63867 0.0214844 3.50977 0.0410156 3.38086 0.0605469 3.21875 0.0703125 3.02344 0.0703125 2.83594 0.0703125 2.67578 0.0605469 2.54297 0.0410156 2.41016 0.0214844 2.30469-0.00195313 2.22656-0.0292969 2.14844-0.0566406 2.09375-0.0957031 2.0625-0.146484 2.03125-0.197266 2.01562-0.25 2.01562-0.304688L2.01562-14.8594C2.01562-14.9219 2.03125-14.9766 2.0625-15.0234 2.09375-15.0703 2.14844-15.1074 2.22656-15.1348 2.30469-15.1621 2.41016-15.1855 2.54297-15.2051 2.67578-15.2246 2.83594-15.2344 3.02344-15.2344 3.21875-15.2344 3.38086-15.2246 3.50977-15.2051 3.63867-15.1855 3.74219-15.1621 3.82031-15.1348 3.89844-15.1074 3.95312-15.0703 3.98438-15.0234 4.01562-14.9766 4.03125-14.9219 4.03125-14.8594L4.03125-8.12109 9.39844-14.8594C9.44531-14.9297 9.5-14.9883 9.5625-15.0352 9.625-15.082 9.70117-15.1191 9.79102-15.1465 9.88086-15.1738 9.99023-15.1953 10.1191-15.2109 10.248-15.2266 10.4141-15.2344 10.6172-15.2344 10.8203-15.2344 10.9844-15.2246 11.1094-15.2051 11.2344-15.1855 11.334-15.1602 11.4082-15.1289 11.4824-15.0977 11.5332-15.0586 11.5605-15.0117 11.5879-14.9648 11.6016-14.9141 11.6016-14.8594 11.6016-14.7578 11.5762-14.6562 11.5254-14.5547 11.4746-14.4531 11.3789-14.3125 11.2383-14.1328L6.21094-8.12109 11.625-0.925781C11.7578-0.722656 11.8379-0.583984 11.8652-0.509766 11.8926-0.435547 11.9062-0.375 11.9062-0.328125ZM22.8596-6.02344C22.8596-5.71875 22.7831-5.50195 22.6301-5.37305 22.4771-5.24414 22.3024-5.17969 22.1062-5.17969L15.1604-5.17969C15.1604-4.59375 15.2193-4.06641 15.337-3.59766 15.4548-3.12891 15.651-2.72656 15.9258-2.39062 16.2006-2.05469 16.5578-1.79687 16.9974-1.61719 17.4371-1.4375 17.9748-1.34766 18.6107-1.34766 19.1131-1.34766 19.5606-1.38867 19.9531-1.4707 20.3456-1.55273 20.6852-1.64453 20.9717-1.74609 21.2583-1.84766 21.4938-1.93945 21.6783-2.02148 21.8628-2.10352 22.0022-2.14453 22.0965-2.14453 22.1514-2.14453 22.2004-2.13086 22.2436-2.10352 22.2867-2.07617 22.3201-2.03516 22.3436-1.98047 22.3672-1.92578 22.3849-1.84961 22.3967-1.75195 22.4084-1.6543 22.4143-1.53516 22.4143-1.39453 22.4143-1.29297 22.4104-1.20508 22.4026-1.13086 22.3948-1.05664 22.385-0.990234 22.3733-0.931641 22.3616-0.873047 22.3421-0.820312 22.3147-0.773438 22.2874-0.726562 22.2522-0.681641 22.2092-0.638672 22.1663-0.595703 22.0393-0.525391 21.8284-0.427734 21.6174-0.330078 21.344-0.234375 21.0081-0.140625 20.6721-0.046875 20.2835 0.0371094 19.8421 0.111328 19.4007 0.185547 18.9299 0.222656 18.4299 0.222656 17.5628 0.222656 16.803 0.101562 16.1507-0.140625 15.4983-0.382812 14.9495-0.742188 14.5042-1.21875 14.0589-1.69531 13.7229-2.29297 13.4964-3.01172 13.2698-3.73047 13.1565-4.56641 13.1565-5.51953 13.1565-6.42578 13.2737-7.24023 13.5081-7.96289 13.7424-8.68555 14.0803-9.29883 14.5217-9.80273 14.9632-10.3066 15.4964-10.6934 16.1214-10.9629 16.7464-11.2324 17.4456-11.3672 18.219-11.3672 19.0471-11.3672 19.7522-11.2344 20.3342-10.9688 20.9163-10.7031 21.3948-10.3457 21.7698-9.89648 22.1448-9.44727 22.4202-8.91992 22.596-8.31445 22.7717-7.70898 22.8596-7.0625 22.8596-6.375ZM20.9143-6.59766C20.9378-7.61328 20.7117-8.41016 20.2363-8.98828 19.7608-9.56641 19.0554-9.85547 18.1199-9.85547 17.6405-9.85547 17.2199-9.76562 16.8584-9.58594 16.4968-9.40625 16.1941-9.16797 15.9504-8.87109 15.7067-8.57422 15.5181-8.22852 15.3844-7.83398 15.2508-7.43945 15.1762-7.02734 15.1604-6.59766ZM30.511 0 29.1047 3.87891C29.0579 4.00391 28.9387 4.09961 28.7473 4.16602 28.5559 4.23242 28.2649 4.26562 27.8743 4.26562 27.6711 4.26562 27.5071 4.25586 27.3821 4.23633 27.2571 4.2168 27.1614 4.18359 27.095 4.13672 27.0286 4.08984 26.9915 4.02734 26.9836 3.94922 26.9758 3.87109 26.9954 3.77734 27.0422 3.66797L28.4954 0C28.4251-0.03125 28.3586-0.0820312 28.2961-0.152344 28.2336-0.222656 28.1907-0.296875 28.1672-0.375L24.4055-10.4531C24.343-10.6172 24.3118-10.7461 24.3118-10.8398 24.3118-10.9336 24.343-11.0078 24.4055-11.0625 24.468-11.1172 24.5696-11.1543 24.7102-11.1738 24.8508-11.1934 25.0383-11.2031 25.2727-11.2031 25.5071-11.2031 25.6907-11.1973 25.8235-11.1855 25.9563-11.1738 26.0618-11.1523 26.1399-11.1211 26.218-11.0898 26.2747-11.0449 26.3098-10.9863 26.345-10.9277 26.3821-10.8477 26.4211-10.7461L29.4329-2.28516 29.468-2.28516 32.3743-10.793C32.4211-10.9414 32.4778-11.0371 32.5442-11.0801 32.6106-11.123 32.7102-11.1543 32.843-11.1738 32.9758-11.1934 33.1672-11.2031 33.4172-11.2031 33.636-11.2031 33.8157-11.1934 33.9563-11.1738 34.0969-11.1543 34.2004-11.1172 34.2668-11.0625 34.3333-11.0078 34.3665-10.9336 34.3665-10.8398 34.3665-10.7461 34.343-10.6289 34.2961-10.4883Z" fill="#FFFFFF" transform="translate(132.859 123)"/></g></g><path d="M816 515 858.667 515 774.538 469.409 922.667 515 1072 515 1072 540.167 1072 540.167 1072 577.917 1072 666 922.667 666 858.667 666 858.667 666 816 666 816 577.917 816 540.167 816 540.167Z" fill="url(#fill7)" fill-rule="evenodd"/><text fill="#FFFFFF" font-family="Calibri,Calibri_MSFontService,sans-serif" font-weight="400" font-size="24" transform="translate(886.653 555)">Candidates:</text><text fill="#FFFFFF" font-family="Arial,Arial_MSFontService,sans-serif" font-weight="400" font-size="24" transform="translate(907.746 584)"></text><text fill="#FFFFFF" font-family="Calibri,Calibri_MSFontService,sans-serif" font-weight="400" font-size="24" transform="translate(937.746 584)">SMS</text><text fill="#FFFFFF" font-family="Arial,Arial_MSFontService,sans-serif" font-weight="400" font-size="24" transform="translate(903.913 613)"></text><text fill="#FFFFFF" font-family="Calibri,Calibri_MSFontService,sans-serif" font-weight="400" font-size="24" transform="translate(933.913 613)">TOTP</text><text fill="#FFFFFF" font-family="Arial,Arial_MSFontService,sans-serif" font-weight="400" font-size="24" transform="translate(870.393 642)"></text><text fill="#FFFFFF" font-family="Calibri,Calibri_MSFontService,sans-serif" font-weight="400" font-size="24" transform="translate(900.393 642)">Physical</text><text fill="#FFFFFF" font-family="Calibri,Calibri_MSFontService,sans-serif" font-weight="400" font-size="24" transform="translate(982.86 642)">Key</text></g></svg>